<svg width="72" height="72" viewBox="0 0 72 72" fill="none" xmlns="http://www.w3.org/2000/svg">
<path fill-rule="evenodd" clip-rule="evenodd" d="M36.1998 71.2023C55.7507 71.2023 71.5998 55.3532 71.5998 35.8023C71.5998 16.2515 55.7507 0.402344 36.1998 0.402344C16.6489 0.402344 0.799805 16.2515 0.799805 35.8023C0.799805 55.3532 16.6489 71.2023 36.1998 71.2023Z" fill="#F7F8FA"/>
<path d="M31.5192 36.4023H27.6792C27.4143 36.4023 27.1992 36.6443 27.1992 36.9423V46.6623C27.1992 46.9604 27.4143 47.2023 27.6792 47.2023H31.5192C31.7842 47.2023 31.9992 46.9604 31.9992 46.6623V36.9423C31.9992 36.6443 31.7842 36.4023 31.5192 36.4023Z" fill="#0687BB"/>
<path d="M46.2777 31.2183L39.6316 23.3891C39.4217 23.1411 38.9764 23.1411 38.7665 23.3891L32.1205 31.2183C31.9875 31.3749 31.9615 31.5895 32.0534 31.7706C32.1459 31.9517 32.3403 32.0665 32.553 32.0665H36.4299V46.6812C36.4299 46.9693 36.678 47.2031 36.9837 47.2031H41.4144C41.7202 47.2031 41.9683 46.9693 41.9683 46.6812V32.0665H45.8452C46.0578 32.0665 46.2522 31.9517 46.3442 31.7706C46.4367 31.59 46.4106 31.3749 46.2777 31.2183Z" fill="#0687BB"/>
</svg>
