<svg width="72" height="72" viewBox="0 0 72 72" fill="none" xmlns="http://www.w3.org/2000/svg">
<path fill-rule="evenodd" clip-rule="evenodd" d="M36.1998 71.2023C55.7507 71.2023 71.5998 55.3532 71.5998 35.8023C71.5998 16.2515 55.7507 0.402344 36.1998 0.402344C16.6489 0.402344 0.799805 16.2515 0.799805 35.8023C0.799805 55.3532 16.6489 71.2023 36.1998 71.2023Z" fill="#F7F8FA"/>
<path d="M38.5533 41.8016H32.6933C32.3734 39.4376 30.1998 37.6016 27.5686 37.6016C24.7185 37.6016 22.3994 39.755 22.3994 42.4016C22.3994 45.0482 24.7185 47.2016 27.5686 47.2016C30.1998 47.2016 32.3734 45.3656 32.6933 43.0016H38.5533C38.9106 43.0016 39.1994 42.7334 39.1994 42.4016C39.1994 42.0698 38.9106 41.8016 38.5533 41.8016Z" fill="#0687BB"/>
<path d="M46.1484 37.5903C45.3914 37.5903 44.676 37.7538 44.0308 38.0392L41.5659 34.2863C41.3815 34.0051 40.9919 33.9191 40.6958 34.0958C40.4003 34.2712 40.3107 34.642 40.4957 34.9238L42.9593 38.6743C41.8241 39.5563 41.0974 40.8968 41.0974 42.3971C41.0974 45.0475 43.3634 47.2039 46.1484 47.2039C48.9334 47.2039 51.1994 45.0475 51.1994 42.3971C51.1994 39.7468 48.9334 37.5903 46.1484 37.5903Z" fill="#0687BB"/>
<path d="M36.5175 23.2031C33.7153 23.2031 31.4352 25.3764 31.4352 28.0474C31.4352 29.5594 32.1664 30.9103 33.3081 31.7993L30.8965 35.4767C30.7104 35.7607 30.8012 36.1343 31.0979 36.3111C31.2027 36.3741 31.3196 36.4031 31.434 36.4031C31.6455 36.4031 31.8526 36.3026 31.9733 36.1185L34.3868 32.4387C35.036 32.7269 35.7558 32.8916 36.5175 32.8916C39.3198 32.8916 41.5998 30.7184 41.5998 28.0474C41.5998 25.3764 39.3198 23.2031 36.5175 23.2031Z" fill="#0687BB"/>
</svg>
