<svg width="20" height="20" viewBox="0 0 20 20" fill="none" xmlns="http://www.w3.org/2000/svg">
<path d="M16.6112 10.4072C16.9262 9.99095 17.1006 9.48095 17.1006 8.95033C17.1006 8.10845 16.63 7.31158 15.8725 6.8672C15.6775 6.75282 15.4554 6.69262 15.2293 6.69283H10.7331L10.8456 4.38845C10.8718 3.83158 10.675 3.30283 10.2925 2.8997C10.1047 2.701 9.87828 2.54291 9.62705 2.4352C9.37583 2.32748 9.10518 2.27243 8.83184 2.27345C7.85684 2.27345 6.99434 2.9297 6.73559 3.86908L5.12496 9.70033H2.70059C2.36871 9.70033 2.10059 9.96845 2.10059 10.3003V17.1253C2.10059 17.4572 2.36871 17.7253 2.70059 17.7253H13.975C14.1475 17.7253 14.3162 17.6916 14.4718 17.6241C15.3643 17.2435 15.94 16.3716 15.94 15.4041C15.94 15.1678 15.9062 14.9353 15.8387 14.7103C16.1537 14.2941 16.3281 13.7841 16.3281 13.2535C16.3281 13.0172 16.2943 12.7847 16.2268 12.5597C16.5418 12.1435 16.7162 11.6335 16.7162 11.1028C16.7125 10.8666 16.6787 10.6322 16.6112 10.4072ZM3.45059 16.3753V11.0503H4.96934V16.3753H3.45059ZM15.3831 9.75658L14.9725 10.1128L15.2331 10.5891C15.319 10.746 15.3635 10.9221 15.3625 11.101C15.3625 11.4103 15.2275 11.7047 14.995 11.9072L14.5843 12.2635L14.845 12.7397C14.9308 12.8966 14.9753 13.0727 14.9743 13.2516C14.9743 13.561 14.8393 13.8553 14.6068 14.0578L14.1962 14.4141L14.4568 14.8903C14.5427 15.0472 14.5872 15.2234 14.5862 15.4022C14.5862 15.8222 14.3387 16.201 13.9562 16.3735H6.16934V10.9903L8.03496 4.23095C8.08307 4.0577 8.18634 3.90485 8.32912 3.79557C8.4719 3.68628 8.64641 3.62652 8.82621 3.62533C8.96871 3.62533 9.10934 3.66658 9.22184 3.75095C9.40746 3.8897 9.50684 4.0997 9.49559 4.32283L9.31559 8.04283H15.2106C15.5443 8.2472 15.7506 8.5922 15.7506 8.95033C15.7506 9.2597 15.6156 9.5522 15.3831 9.75658Z" fill="#0687BB"/>
</svg>
