<svg width="368" height="49" viewBox="0 0 368 49" fill="none" xmlns="http://www.w3.org/2000/svg">
<path d="M1.2 22.7372C1.2 16.9919 5.55044 12.2628 11.1368 11.6643V36.2089C11.1368 41.9541 6.78633 46.6833 1.2 47.2818V22.7372Z" fill="url(#paint0_linear_2112_2766)" stroke="url(#paint1_linear_2112_2766)" stroke-width="2.4"/>
<path d="M19.702 12.993C19.702 7.24779 24.0524 2.51863 29.6387 1.92015V26.4648C29.6387 32.21 25.2883 36.9392 19.702 37.5376V12.993Z" fill="url(#paint2_linear_2112_2766)" stroke="url(#paint3_linear_2112_2766)" stroke-width="2.4"/>
<path d="M47.7543 33.6016V16.3216H50.6463V23.5936H58.8303V16.3216H61.7103V33.6016H58.8303V26.3056H50.6463V33.6016H47.7543ZM71.8306 33.6016V26.5216L65.9506 16.3216H69.3226L73.2946 23.2096L77.2546 16.3216H80.6266L74.7586 26.5216V33.6016H71.8306ZM84.8585 33.6016V16.3216H91.9985C92.1665 16.3216 92.3825 16.3296 92.6465 16.3456C92.9105 16.3536 93.1545 16.3776 93.3785 16.4176C94.3785 16.5696 95.2025 16.9016 95.8505 17.4136C96.5065 17.9256 96.9905 18.5736 97.3025 19.3576C97.6225 20.1336 97.7825 20.9976 97.7825 21.9496C97.7825 22.8936 97.6225 23.7576 97.3025 24.5416C96.9825 25.3176 96.4945 25.9616 95.8385 26.4736C95.1905 26.9856 94.3705 27.3176 93.3785 27.4696C93.1545 27.5016 92.9065 27.5256 92.6345 27.5416C92.3705 27.5576 92.1585 27.5656 91.9985 27.5656H87.7505V33.6016H84.8585ZM87.7505 24.8656H91.8785C92.0385 24.8656 92.2185 24.8576 92.4185 24.8416C92.6185 24.8256 92.8025 24.7936 92.9705 24.7456C93.4505 24.6256 93.8265 24.4136 94.0985 24.1096C94.3785 23.8056 94.5745 23.4616 94.6865 23.0776C94.8065 22.6936 94.8665 22.3176 94.8665 21.9496C94.8665 21.5816 94.8065 21.2056 94.6865 20.8216C94.5745 20.4296 94.3785 20.0816 94.0985 19.7776C93.8265 19.4736 93.4505 19.2616 92.9705 19.1416C92.8025 19.0936 92.6185 19.0656 92.4185 19.0576C92.2185 19.0416 92.0385 19.0336 91.8785 19.0336H87.7505V24.8656ZM102.743 33.6016V16.3216H113.903V19.0336H105.635V23.2936H112.463V26.0056H105.635V30.8896H113.903V33.6016H102.743ZM119.338 33.6016V16.3216H126.478C126.646 16.3216 126.862 16.3296 127.126 16.3456C127.39 16.3536 127.634 16.3776 127.858 16.4176C128.858 16.5696 129.682 16.9016 130.33 17.4136C130.986 17.9256 131.47 18.5736 131.782 19.3576C132.102 20.1336 132.262 20.9976 132.262 21.9496C132.262 23.3576 131.906 24.5696 131.194 25.5856C130.482 26.5936 129.39 27.2176 127.918 27.4576L126.682 27.5656H122.23V33.6016H119.338ZM129.262 33.6016L125.854 26.5696L128.794 25.9216L132.538 33.6016H129.262ZM122.23 24.8656H126.358C126.518 24.8656 126.698 24.8576 126.898 24.8416C127.098 24.8256 127.282 24.7936 127.45 24.7456C127.93 24.6256 128.306 24.4136 128.578 24.1096C128.858 23.8056 129.054 23.4616 129.166 23.0776C129.286 22.6936 129.346 22.3176 129.346 21.9496C129.346 21.5816 129.286 21.2056 129.166 20.8216C129.054 20.4296 128.858 20.0816 128.578 19.7776C128.306 19.4736 127.93 19.2616 127.45 19.1416C127.282 19.0936 127.098 19.0656 126.898 19.0576C126.698 19.0416 126.518 19.0336 126.358 19.0336H122.23V24.8656ZM144.133 33.9616C142.869 33.9616 141.729 33.7416 140.713 33.3016C139.705 32.8616 138.873 32.2336 138.217 31.4176C137.569 30.5936 137.157 29.6176 136.981 28.4896L139.981 28.0336C140.237 29.0576 140.761 29.8496 141.553 30.4096C142.353 30.9696 143.273 31.2496 144.313 31.2496C144.929 31.2496 145.509 31.1536 146.053 30.9616C146.597 30.7696 147.037 30.4896 147.373 30.1216C147.717 29.7536 147.889 29.3016 147.889 28.7656C147.889 28.5256 147.849 28.3056 147.769 28.1056C147.689 27.8976 147.569 27.7136 147.409 27.5536C147.257 27.3936 147.057 27.2496 146.809 27.1216C146.569 26.9856 146.289 26.8696 145.969 26.7736L141.505 25.4536C141.121 25.3416 140.705 25.1936 140.257 25.0096C139.817 24.8176 139.397 24.5576 138.997 24.2296C138.605 23.8936 138.281 23.4696 138.025 22.9576C137.777 22.4376 137.653 21.7976 137.653 21.0376C137.653 19.9256 137.933 18.9936 138.493 18.2416C139.061 17.4816 139.821 16.9136 140.773 16.5376C141.733 16.1616 142.797 15.9776 143.965 15.9856C145.149 15.9936 146.205 16.1976 147.133 16.5976C148.061 16.9896 148.837 17.5616 149.461 18.3136C150.085 19.0656 150.525 19.9736 150.781 21.0376L147.673 21.5776C147.545 20.9696 147.297 20.4536 146.929 20.0296C146.569 19.5976 146.125 19.2696 145.597 19.0456C145.077 18.8216 144.521 18.7016 143.929 18.6856C143.353 18.6776 142.817 18.7656 142.321 18.9496C141.833 19.1256 141.437 19.3816 141.133 19.7176C140.837 20.0536 140.689 20.4456 140.689 20.8936C140.689 21.3176 140.817 21.6656 141.073 21.9376C141.329 22.2016 141.645 22.4136 142.021 22.5736C142.405 22.7256 142.793 22.8536 143.185 22.9576L146.281 23.8216C146.705 23.9336 147.181 24.0856 147.709 24.2776C148.237 24.4696 148.745 24.7376 149.233 25.0816C149.721 25.4256 150.121 25.8776 150.433 26.4376C150.753 26.9976 150.913 27.7096 150.913 28.5736C150.913 29.4696 150.725 30.2576 150.349 30.9376C149.981 31.6096 149.481 32.1696 148.849 32.6176C148.217 33.0656 147.493 33.4016 146.677 33.6256C145.869 33.8496 145.021 33.9616 144.133 33.9616ZM163.375 33.9616C161.647 33.9616 160.167 33.5856 158.935 32.8336C157.703 32.0736 156.755 31.0176 156.091 29.6656C155.435 28.3136 155.107 26.7456 155.107 24.9616C155.107 23.1776 155.435 21.6096 156.091 20.2576C156.755 18.9056 157.703 17.8536 158.935 17.1016C160.167 16.3416 161.647 15.9616 163.375 15.9616C165.367 15.9616 167.027 16.4616 168.355 17.4616C169.683 18.4536 170.615 19.7936 171.151 21.4816L168.235 22.2856C167.899 21.1576 167.327 20.2776 166.519 19.6456C165.711 19.0056 164.663 18.6856 163.375 18.6856C162.215 18.6856 161.247 18.9456 160.471 19.4656C159.703 19.9856 159.123 20.7176 158.731 21.6616C158.347 22.5976 158.151 23.6976 158.143 24.9616C158.143 26.2256 158.335 27.3296 158.719 28.2736C159.111 29.2096 159.695 29.9376 160.471 30.4576C161.247 30.9776 162.215 31.2376 163.375 31.2376C164.663 31.2376 165.711 30.9176 166.519 30.2776C167.327 29.6376 167.899 28.7576 168.235 27.6376L171.151 28.4416C170.615 30.1296 169.683 31.4736 168.355 32.4736C167.027 33.4656 165.367 33.9616 163.375 33.9616ZM174.673 33.6016L180.121 16.3216H184.357L189.805 33.6016H186.829L181.885 18.0976H182.533L177.649 33.6016H174.673ZM177.709 29.8576V27.1576H186.781V29.8576H177.709ZM194.771 33.6016V16.3216H197.663V30.8896H205.295V33.6016H194.771ZM209.883 33.6016V16.3216H221.043V19.0336H212.775V23.2936H219.603V26.0056H212.775V30.8896H221.043V33.6016H209.883Z" fill="black"/>
<defs>
<linearGradient id="paint0_linear_2112_2766" x1="6.16839" y1="10.4004" x2="6.16839" y2="48.5457" gradientUnits="userSpaceOnUse">
<stop stop-color="#21A9DF"/>
<stop offset="1" stop-color="#145573"/>
</linearGradient>
<linearGradient id="paint1_linear_2112_2766" x1="6.16839" y1="10.4004" x2="6.16839" y2="48.5457" gradientUnits="userSpaceOnUse">
<stop stop-color="#21A9DF"/>
<stop offset="1" stop-color="#145573"/>
</linearGradient>
<linearGradient id="paint2_linear_2112_2766" x1="24.6703" y1="0.65625" x2="24.6703" y2="38.8015" gradientUnits="userSpaceOnUse">
<stop stop-color="#21A9DF"/>
<stop offset="1" stop-color="#145573"/>
</linearGradient>
<linearGradient id="paint3_linear_2112_2766" x1="24.6703" y1="0.65625" x2="24.6703" y2="38.8015" gradientUnits="userSpaceOnUse">
<stop stop-color="#21A9DF"/>
<stop offset="1" stop-color="#145573"/>
</linearGradient>
</defs>
</svg>
