<svg width="368" height="48" viewBox="0 0 368 48" fill="none" xmlns="http://www.w3.org/2000/svg">
<path d="M1.80059 22.0809C1.80059 16.3357 6.15103 11.6065 11.7374 11.008V35.5526C11.7374 41.2979 7.38692 46.027 1.80059 46.6255V22.0809Z" fill="url(#paint0_linear_2112_2436)" stroke="url(#paint1_linear_2112_2436)" stroke-width="2.4"/>
<path d="M20.3025 12.3368C20.3025 6.59154 24.653 1.86238 30.2393 1.2639V25.8085C30.2393 31.5538 25.8889 36.2829 20.3025 36.8814V12.3368Z" fill="url(#paint2_linear_2112_2436)" stroke="url(#paint3_linear_2112_2436)" stroke-width="2.4"/>
<path d="M55.7829 32.9453V15.6653H58.6749V22.9373H66.8589V15.6653H69.7389V32.9453H66.8589V25.6493H58.6749V32.9453H55.7829ZM79.8593 32.9453V25.8653L73.9793 15.6653H77.3513L81.3233 22.5533L85.2833 15.6653H88.6553L82.7873 25.8653V32.9453H79.8593ZM92.8872 32.9453V15.6653H100.027C100.195 15.6653 100.411 15.6733 100.675 15.6893C100.939 15.6973 101.183 15.7213 101.407 15.7613C102.407 15.9133 103.231 16.2453 103.879 16.7573C104.535 17.2693 105.019 17.9173 105.331 18.7013C105.651 19.4773 105.811 20.3413 105.811 21.2933C105.811 22.2373 105.651 23.1013 105.331 23.8853C105.011 24.6613 104.523 25.3053 103.867 25.8173C103.219 26.3293 102.399 26.6613 101.407 26.8133C101.183 26.8453 100.935 26.8693 100.663 26.8853C100.399 26.9013 100.187 26.9093 100.027 26.9093H95.7792V32.9453H92.8872ZM95.7792 24.2093H99.9072C100.067 24.2093 100.247 24.2013 100.447 24.1853C100.647 24.1693 100.831 24.1373 100.999 24.0893C101.479 23.9693 101.855 23.7573 102.127 23.4533C102.407 23.1493 102.603 22.8053 102.715 22.4213C102.835 22.0373 102.895 21.6613 102.895 21.2933C102.895 20.9253 102.835 20.5493 102.715 20.1653C102.603 19.7733 102.407 19.4253 102.127 19.1213C101.855 18.8173 101.479 18.6053 100.999 18.4853C100.831 18.4373 100.647 18.4093 100.447 18.4013C100.247 18.3853 100.067 18.3773 99.9072 18.3773H95.7792V24.2093ZM110.771 32.9453V15.6653H121.931V18.3773H113.663V22.6373H120.491V25.3493H113.663V30.2333H121.931V32.9453H110.771ZM127.366 32.9453V15.6653H134.506C134.674 15.6653 134.89 15.6733 135.154 15.6893C135.418 15.6973 135.662 15.7213 135.886 15.7613C136.886 15.9133 137.71 16.2453 138.358 16.7573C139.014 17.2693 139.498 17.9173 139.81 18.7013C140.13 19.4773 140.29 20.3413 140.29 21.2933C140.29 22.7013 139.934 23.9133 139.222 24.9293C138.51 25.9373 137.418 26.5613 135.946 26.8013L134.71 26.9093H130.258V32.9453H127.366ZM137.29 32.9453L133.882 25.9133L136.822 25.2653L140.566 32.9453H137.29ZM130.258 24.2093H134.386C134.546 24.2093 134.726 24.2013 134.926 24.1853C135.126 24.1693 135.31 24.1373 135.478 24.0893C135.958 23.9693 136.334 23.7573 136.606 23.4533C136.886 23.1493 137.082 22.8053 137.194 22.4213C137.314 22.0373 137.374 21.6613 137.374 21.2933C137.374 20.9253 137.314 20.5493 137.194 20.1653C137.082 19.7733 136.886 19.4253 136.606 19.1213C136.334 18.8173 135.958 18.6053 135.478 18.4853C135.31 18.4373 135.126 18.4093 134.926 18.4013C134.726 18.3853 134.546 18.3773 134.386 18.3773H130.258V24.2093ZM152.162 33.3053C150.898 33.3053 149.758 33.0853 148.742 32.6453C147.734 32.2053 146.902 31.5773 146.246 30.7613C145.598 29.9373 145.186 28.9613 145.01 27.8333L148.01 27.3773C148.266 28.4013 148.79 29.1933 149.582 29.7533C150.382 30.3133 151.302 30.5933 152.342 30.5933C152.958 30.5933 153.538 30.4973 154.082 30.3053C154.626 30.1133 155.066 29.8333 155.402 29.4653C155.746 29.0973 155.918 28.6453 155.918 28.1093C155.918 27.8693 155.878 27.6493 155.798 27.4493C155.718 27.2413 155.598 27.0573 155.438 26.8973C155.286 26.7373 155.086 26.5933 154.838 26.4653C154.598 26.3293 154.318 26.2133 153.998 26.1173L149.534 24.7973C149.15 24.6853 148.734 24.5373 148.286 24.3533C147.846 24.1613 147.426 23.9013 147.026 23.5733C146.634 23.2373 146.31 22.8133 146.054 22.3013C145.806 21.7813 145.682 21.1413 145.682 20.3813C145.682 19.2693 145.962 18.3373 146.522 17.5853C147.09 16.8253 147.85 16.2573 148.802 15.8813C149.762 15.5053 150.826 15.3213 151.994 15.3293C153.178 15.3373 154.234 15.5413 155.162 15.9413C156.09 16.3333 156.866 16.9053 157.49 17.6573C158.114 18.4093 158.554 19.3173 158.81 20.3813L155.702 20.9213C155.574 20.3133 155.326 19.7973 154.958 19.3733C154.598 18.9413 154.154 18.6133 153.626 18.3893C153.106 18.1653 152.55 18.0453 151.958 18.0293C151.382 18.0213 150.846 18.1093 150.35 18.2933C149.862 18.4693 149.466 18.7253 149.162 19.0613C148.866 19.3973 148.718 19.7893 148.718 20.2373C148.718 20.6613 148.846 21.0093 149.102 21.2813C149.358 21.5453 149.674 21.7573 150.05 21.9173C150.434 22.0693 150.822 22.1973 151.214 22.3013L154.31 23.1653C154.734 23.2773 155.21 23.4293 155.738 23.6213C156.266 23.8133 156.774 24.0813 157.262 24.4253C157.75 24.7693 158.15 25.2213 158.462 25.7813C158.782 26.3413 158.942 27.0533 158.942 27.9173C158.942 28.8133 158.754 29.6013 158.378 30.2813C158.01 30.9533 157.51 31.5133 156.878 31.9613C156.246 32.4093 155.522 32.7453 154.706 32.9693C153.898 33.1933 153.05 33.3053 152.162 33.3053ZM171.404 33.3053C169.676 33.3053 168.196 32.9293 166.964 32.1773C165.732 31.4173 164.784 30.3613 164.12 29.0093C163.464 27.6573 163.136 26.0893 163.136 24.3053C163.136 22.5213 163.464 20.9533 164.12 19.6013C164.784 18.2493 165.732 17.1973 166.964 16.4453C168.196 15.6853 169.676 15.3053 171.404 15.3053C173.396 15.3053 175.056 15.8053 176.384 16.8053C177.712 17.7973 178.644 19.1373 179.18 20.8253L176.264 21.6293C175.928 20.5013 175.356 19.6213 174.548 18.9893C173.74 18.3493 172.692 18.0293 171.404 18.0293C170.244 18.0293 169.276 18.2893 168.5 18.8093C167.732 19.3293 167.152 20.0613 166.76 21.0053C166.376 21.9413 166.18 23.0413 166.172 24.3053C166.172 25.5693 166.364 26.6733 166.748 27.6173C167.14 28.5533 167.724 29.2813 168.5 29.8013C169.276 30.3213 170.244 30.5813 171.404 30.5813C172.692 30.5813 173.74 30.2613 174.548 29.6213C175.356 28.9813 175.928 28.1013 176.264 26.9813L179.18 27.7853C178.644 29.4733 177.712 30.8173 176.384 31.8173C175.056 32.8093 173.396 33.3053 171.404 33.3053ZM182.702 32.9453L188.15 15.6653H192.386L197.834 32.9453H194.858L189.914 17.4413H190.562L185.678 32.9453H182.702ZM185.738 29.2013V26.5013H194.81V29.2013H185.738ZM202.799 32.9453V15.6653H205.691V30.2333H213.323V32.9453H202.799ZM217.912 32.9453V15.6653H229.072V18.3773H220.804V22.6373H227.632V25.3493H220.804V30.2333H229.072V32.9453H217.912ZM241.868 32.9453V15.6653H244.472L250.448 27.9053L256.424 15.6653H259.028V32.9453H256.328V21.8693L251.024 32.9453H249.872L244.58 21.8693V32.9453H241.868ZM264.955 32.9453V15.6653H276.115V18.3773H267.847V22.6373H274.675V25.3493H267.847V30.2333H276.115V32.9453H264.955ZM281.55 32.9453V15.6653H287.058C287.202 15.6653 287.486 15.6693 287.91 15.6773C288.342 15.6853 288.758 15.7133 289.158 15.7613C290.526 15.9373 291.682 16.4253 292.626 17.2253C293.578 18.0173 294.298 19.0293 294.786 20.2613C295.274 21.4933 295.518 22.8413 295.518 24.3053C295.518 25.7693 295.274 27.1173 294.786 28.3493C294.298 29.5813 293.578 30.5973 292.626 31.3973C291.682 32.1893 290.526 32.6733 289.158 32.8493C288.766 32.8973 288.354 32.9253 287.922 32.9333C287.49 32.9413 287.202 32.9453 287.058 32.9453H281.55ZM284.49 30.2213H287.058C287.298 30.2213 287.602 30.2133 287.97 30.1973C288.346 30.1813 288.678 30.1453 288.966 30.0893C289.782 29.9373 290.446 29.5733 290.958 28.9973C291.47 28.4213 291.846 27.7213 292.086 26.8973C292.334 26.0733 292.458 25.2093 292.458 24.3053C292.458 23.3693 292.334 22.4893 292.086 21.6653C291.838 20.8413 291.454 20.1493 290.934 19.5893C290.422 19.0293 289.766 18.6733 288.966 18.5213C288.678 18.4573 288.346 18.4213 287.97 18.4133C287.602 18.3973 287.298 18.3893 287.058 18.3893H284.49V30.2213ZM301.151 32.9453V15.6653H304.043V32.9453H301.151ZM308.993 32.9453L314.441 15.6653H318.677L324.125 32.9453H321.149L316.205 17.4413H316.853L311.969 32.9453H308.993ZM312.029 29.2013V26.5013H321.101V29.2013H312.029Z" fill="white"/>
<defs>
<linearGradient id="paint0_linear_2112_2436" x1="6.76897" y1="9.74414" x2="6.76897" y2="47.8894" gradientUnits="userSpaceOnUse">
<stop stop-color="#21A9DF"/>
<stop offset="1" stop-color="#145573"/>
</linearGradient>
<linearGradient id="paint1_linear_2112_2436" x1="6.76897" y1="9.74414" x2="6.76897" y2="47.8894" gradientUnits="userSpaceOnUse">
<stop stop-color="#21A9DF"/>
<stop offset="1" stop-color="#145573"/>
</linearGradient>
<linearGradient id="paint2_linear_2112_2436" x1="25.2709" y1="0" x2="25.2709" y2="38.1453" gradientUnits="userSpaceOnUse">
<stop stop-color="#21A9DF"/>
<stop offset="1" stop-color="#145573"/>
</linearGradient>
<linearGradient id="paint3_linear_2112_2436" x1="25.2709" y1="0" x2="25.2709" y2="38.1453" gradientUnits="userSpaceOnUse">
<stop stop-color="#21A9DF"/>
<stop offset="1" stop-color="#145573"/>
</linearGradient>
</defs>
</svg>
