<svg width="22" height="22" viewBox="0 0 22 22" fill="none" xmlns="http://www.w3.org/2000/svg">
<path d="M16.7802 3.93555H4.41606C3.71338 3.93555 3.03948 4.21469 2.54261 4.71155C2.04574 5.20842 1.7666 5.88232 1.7666 6.585V15.4165C1.7666 16.1192 2.04574 16.7931 2.54261 17.29C3.03948 17.7868 3.71338 18.066 4.41606 18.066H16.7802C17.4829 18.066 18.1568 17.7868 18.6536 17.29C19.1505 16.7931 19.4296 16.1192 19.4296 15.4165V6.585C19.4296 5.88232 19.1505 5.20842 18.6536 4.71155C18.1568 4.21469 17.4829 3.93555 16.7802 3.93555ZM16.1885 5.70185L10.5981 9.89682L5.00777 5.70185H16.1885ZM16.7802 16.2997H4.41606C4.18183 16.2997 3.9572 16.2066 3.79158 16.041C3.62595 15.8754 3.53291 15.6508 3.53291 15.4165V6.80579L10.0682 11.7073C10.2211 11.8219 10.407 11.8839 10.5981 11.8839C10.7892 11.8839 10.9751 11.8219 11.128 11.7073L17.6633 6.80579V15.4165C17.6633 15.6508 17.5703 15.8754 17.4047 16.041C17.239 16.2066 17.0144 16.2997 16.7802 16.2997Z" fill="#898A8D"/>
</svg>
