<svg width="20" height="20" viewBox="0 0 20 20" fill="none" xmlns="http://www.w3.org/2000/svg">
<g clip-path="url(#clip0_2147_3720)">
<path d="M9.59956 1.60156C4.29706 1.60156 -0.00044088 5.09281 -0.00044088 9.40156C-0.00044088 11.1866 0.745809 12.8216 1.98331 14.1378C1.42456 15.6153 0.262059 16.8678 0.243309 16.8828C-0.00419088 17.1453 -0.0716909 17.5278 0.0708091 17.8578C0.213309 18.1878 0.539559 18.4016 0.899559 18.4016C3.20581 18.4016 5.02456 17.4378 6.11581 16.6653C7.19956 17.0066 8.36956 17.2016 9.59956 17.2016C14.9021 17.2016 19.1996 13.7103 19.1996 9.40156C19.1996 5.09281 14.9021 1.60156 9.59956 1.60156ZM9.59956 15.4016C8.59831 15.4016 7.60831 15.2478 6.65956 14.9478L5.80831 14.6778L5.07706 15.1953C4.54081 15.5741 3.80581 15.9978 2.92081 16.2828C3.19456 15.8291 3.46081 15.3191 3.66706 14.7753L4.06456 13.7216L3.29206 12.9041C2.61331 12.1803 1.79956 10.9841 1.79956 9.40156C1.79956 6.09406 5.29831 3.40156 9.59956 3.40156C13.9008 3.40156 17.3996 6.09406 17.3996 9.40156C17.3996 12.7091 13.9008 15.4016 9.59956 15.4016Z" fill="#0687BB"/>
</g>
<defs>
<clipPath id="clip0_2147_3720">
<rect width="19.2" height="19.2" fill="white" transform="translate(0 0.398438)"/>
</clipPath>
</defs>
</svg>
