<svg width="22" height="22" viewBox="0 0 22 22" fill="none" xmlns="http://www.w3.org/2000/svg">
<path fill-rule="evenodd" clip-rule="evenodd" d="M14.1297 8.35097C14.1297 9.28787 13.7575 10.1864 13.095 10.8489C12.4325 11.5114 11.534 11.8836 10.5971 11.8836C9.66016 11.8836 8.76162 11.5114 8.09913 10.8489C7.43664 10.1864 7.06445 9.28787 7.06445 8.35097C7.06445 7.41406 7.43664 6.51553 8.09913 5.85304C8.76162 5.19054 9.66016 4.81836 10.5971 4.81836C11.534 4.81836 12.4325 5.19054 13.095 5.85304C13.7575 6.51553 14.1297 7.41406 14.1297 8.35097ZM12.3634 8.35097C12.3634 8.81942 12.1773 9.26869 11.846 9.59993C11.5148 9.93118 11.0655 10.1173 10.5971 10.1173C10.1286 10.1173 9.67934 9.93118 9.3481 9.59993C9.01685 9.26869 8.83076 8.81942 8.83076 8.35097C8.83076 7.88251 9.01685 7.43325 9.3481 7.102C9.67934 6.77076 10.1286 6.58466 10.5971 6.58466C11.0655 6.58466 11.5148 6.77076 11.846 7.102C12.1773 7.43325 12.3634 7.88251 12.3634 8.35097Z" fill="#898A8D"/>
<path fill-rule="evenodd" clip-rule="evenodd" d="M10.5975 1.28516C5.23234 1.28516 0.882812 5.63468 0.882812 10.9998C0.882812 16.365 5.23234 20.7145 10.5975 20.7145C15.9626 20.7145 20.3122 16.365 20.3122 10.9998C20.3122 5.63468 15.9626 1.28516 10.5975 1.28516ZM2.64912 10.9998C2.64912 12.8456 3.2788 14.5448 4.33417 15.8943C5.07534 14.9209 6.0315 14.1321 7.12796 13.5895C8.22443 13.0469 9.4315 12.7651 10.6549 12.7661C11.8625 12.765 13.0543 13.0395 14.1397 13.5687C15.2252 14.098 16.1754 14.868 16.9182 15.8201C17.6834 14.8165 18.1986 13.6451 18.4212 12.4028C18.6438 11.1605 18.5674 9.88311 18.1983 8.67624C17.8292 7.46937 17.178 6.36774 16.2987 5.4625C15.4193 4.55726 14.337 3.87443 13.1413 3.47052C11.9456 3.06661 10.671 2.95323 9.42277 3.13975C8.17458 3.32627 6.98874 3.80734 5.96338 4.54315C4.93802 5.27896 4.10262 6.24836 3.52629 7.37113C2.94996 8.4939 2.64928 9.73778 2.64912 10.9998ZM10.5975 18.9482C8.77285 18.9509 7.00329 18.3232 5.58825 17.1713C6.15782 16.3559 6.91592 15.6902 7.79806 15.2307C8.6802 14.7713 9.66027 14.5317 10.6549 14.5324C11.6371 14.5317 12.6053 14.7652 13.4791 15.2137C14.353 15.6622 15.1072 16.3127 15.6791 17.1112C14.2531 18.3006 12.4544 18.9508 10.5975 18.9482Z" fill="#898A8D"/>
</svg>
