<svg width="72" height="72" viewBox="0 0 72 72" fill="none" xmlns="http://www.w3.org/2000/svg">
<path fill-rule="evenodd" clip-rule="evenodd" d="M36.0016 71.4016C55.5524 71.4016 71.4016 55.5524 71.4016 36.0016C71.4016 16.4507 55.5524 0.601562 36.0016 0.601562C16.4507 0.601562 0.601562 16.4507 0.601562 36.0016C0.601562 55.5524 16.4507 71.4016 36.0016 71.4016Z" fill="#F7F8FA"/>
<path d="M35.151 33.1368L31.8102 32.9064C31.7526 32.388 31.7238 32.0328 31.7238 31.8408C31.7238 30.1512 32.319 28.7112 33.5094 27.5208C34.719 26.3112 36.3414 25.7064 38.3766 25.7064C40.3734 25.7064 41.967 26.2728 43.1574 27.4056C44.3478 28.5384 44.943 29.9304 44.943 31.5816C44.943 33.9624 43.743 35.892 41.343 37.3704L37.7142 39.6168C36.6582 40.2504 36.0246 40.9608 35.8134 41.748H45.0582V44.8008H31.551C31.5894 43.1304 31.9446 41.6712 32.6166 40.4232C33.2886 39.1752 34.4118 38.0616 35.9862 37.0824L39.0678 35.1528C40.6614 34.1544 41.4582 32.9832 41.4582 31.6392C41.4582 30.8136 41.1798 30.1224 40.623 29.5656C40.0854 29.0088 39.3174 28.7304 38.319 28.7304C37.263 28.7304 36.4566 29.0568 35.8998 29.7096C35.343 30.3432 35.0646 31.1688 35.0646 32.1864L35.151 33.1368Z" fill="#0687BB"/>
</svg>
