<svg width="72" height="72" viewBox="0 0 72 72" fill="none" xmlns="http://www.w3.org/2000/svg">
<path fill-rule="evenodd" clip-rule="evenodd" d="M36.0016 71.4016C55.5524 71.4016 71.4016 55.5524 71.4016 36.0016C71.4016 16.4507 55.5524 0.601562 36.0016 0.601562C16.4507 0.601562 0.601562 16.4507 0.601562 36.0016C0.601562 55.5524 16.4507 71.4016 36.0016 71.4016Z" fill="#F7F8FA"/>
<path d="M36.9078 36.3336L35.3238 33.7704L40.479 29.1624H31.983V26.1384H44.943V29.0184L39.8742 33.4536C41.3718 33.492 42.6774 34.02 43.791 35.0376C44.9046 36.0552 45.4614 37.4184 45.4614 39.1272C45.4614 40.8168 44.8278 42.2568 43.5606 43.4472C42.2934 44.6376 40.5942 45.2328 38.463 45.2328C36.3894 45.2328 34.7094 44.6664 33.423 43.5336C32.1558 42.3816 31.4646 40.98 31.3494 39.3288L34.719 38.6376C34.7574 39.7128 35.1222 40.5864 35.8134 41.2584C36.5238 41.9304 37.3974 42.2664 38.4342 42.2664C39.5286 42.2664 40.3926 41.9592 41.0262 41.3448C41.6598 40.7304 41.9766 39.9816 41.9766 39.0984C41.9766 38.1 41.6406 37.3416 40.9686 36.8232C40.3158 36.2856 39.5478 36.0168 38.6646 36.0168C37.9158 36.0168 37.3302 36.1224 36.9078 36.3336Z" fill="#0687BB"/>
</svg>
