<svg width="72" height="71" viewBox="0 0 72 71" fill="none" xmlns="http://www.w3.org/2000/svg">
<path fill-rule="evenodd" clip-rule="evenodd" d="M36.1998 70.8039C55.7507 70.8039 71.5998 54.9548 71.5998 35.4039C71.5998 15.853 55.7507 0.00390625 36.1998 0.00390625C16.6489 0.00390625 0.799805 15.853 0.799805 35.4039C0.799805 54.9548 16.6489 70.8039 36.1998 70.8039Z" fill="#F7F8FA"/>
<path fill-rule="evenodd" clip-rule="evenodd" d="M24.8008 26.4023V31.2023H48.8008V26.4023H24.8008ZM48.8008 45.6023H24.8008V40.8023H48.8008V45.6023ZM29.6008 42.0023H27.2008V44.4023H29.6008V42.0023ZM27.2008 30.0023H29.6008V27.6023H27.2008V30.0023ZM24.8008 38.4023H48.8008V33.6023H24.8008V38.4023ZM29.6008 34.8023H27.2008V37.2023H29.6008V34.8023Z" fill="#0687BB"/>
</svg>
