<svg width="750" height="500" viewBox="0 0 750 500" fill="none" xmlns="http://www.w3.org/2000/svg">
<path d="M600.131 38.9098L598.581 39.9998C585.511 49.2598 578.341 64.8398 580.471 80.5698C580.74 82.5984 581.162 84.604 581.731 86.5698C583.893 93.6755 587.776 100.137 593.035 105.381C598.295 110.625 604.769 114.489 611.881 116.63C620.281 119.1 629.761 119.27 636.671 124.63C645.671 131.56 646.841 144.32 647.291 155.63C647.741 166.94 648.961 179.63 657.981 186.54C663.631 190.86 671.301 191.81 678.391 190.92C697.171 188.57 713.081 174.24 720.271 156.92C727.461 139.6 726.801 119.92 721.811 101.92C714.811 76.6798 698.901 53.3398 675.961 40.2598C653.021 27.1798 622.921 25.5098 600.131 38.9098Z" fill="#F5F5F5"/>
<path d="M146.201 47.4798L147.751 48.5798C160.821 57.8498 167.981 73.4198 165.861 89.1598C165.582 91.1878 165.158 93.193 164.591 95.1598C162.431 102.265 158.55 108.727 153.292 113.971C148.034 119.216 141.562 123.08 134.451 125.22C126.051 127.69 116.561 127.87 109.651 133.22C100.651 140.14 99.4806 152.9 99.0306 164.16C98.5806 175.42 97.3706 188.16 88.3506 195.08C82.6906 199.39 75.0306 200.34 67.9406 199.45C49.1606 197.11 33.2406 182.77 26.0606 165.45C18.8806 148.13 19.5306 128.45 24.5206 110.45C31.5206 85.2098 47.4206 61.8698 70.3606 48.7898C93.3006 35.7098 123.401 34.0798 146.201 47.4798Z" fill="#F5F5F5"/>
<path d="M426.883 74.4498C429.944 61.6214 422.026 48.7405 409.197 45.6796C396.369 42.6187 383.488 50.5369 380.427 63.3653C377.366 76.1937 385.284 89.0746 398.113 92.1355C410.941 95.1964 423.822 87.2782 426.883 74.4498Z" fill="#F5F5F5"/>
<path d="M729.531 428C729.531 428.14 570.731 428.26 374.891 428.26C179.051 428.26 20.2207 428.14 20.2207 428C20.2207 427.86 178.981 427.74 374.891 427.74C570.801 427.74 729.531 427.85 729.531 428Z" fill="#263238"/>
<path d="M566.44 120.16H218.28C215.402 120.158 212.64 121.298 210.602 123.33C208.563 125.363 207.415 128.122 207.41 131V376.94C207.409 378.368 207.689 379.782 208.235 381.101C208.781 382.421 209.581 383.62 210.591 384.629C211.601 385.639 212.799 386.44 214.119 386.985C215.438 387.531 216.852 387.811 218.28 387.81H351.9C351.9 387.81 360.4 414.1 334.05 427.7H459C459 427.7 429.25 417.5 436.9 387.81H566.44C569.313 387.81 572.068 386.673 574.105 384.648C576.142 382.622 577.294 379.873 577.31 377V131C577.302 128.122 576.153 125.365 574.116 123.333C572.078 121.301 569.318 120.16 566.44 120.16Z" fill="#455A64"/>
<path d="M397 362C401.73 368.77 394.32 376.18 387.55 371.45C387.323 371.29 387.126 371.09 386.97 370.86C382.25 364.1 389.65 356.69 396.42 361.42C396.644 361.58 396.84 361.776 397 362Z" fill="#263238"/>
<path d="M223.1 124.66H561.62C562.894 124.66 564.156 124.911 565.332 125.399C566.509 125.886 567.579 126.6 568.479 127.501C569.38 128.402 570.095 129.471 570.582 130.648C571.069 131.825 571.32 133.086 571.32 134.36V342.82H213.4V134.36C213.4 133.086 213.651 131.825 214.139 130.648C214.626 129.471 215.341 128.402 216.241 127.501C217.142 126.6 218.212 125.886 219.388 125.399C220.565 124.911 221.827 124.66 223.1 124.66Z" fill="white"/>
<path d="M222.56 124.66H563.8C565.795 124.66 567.708 125.452 569.118 126.863C570.528 128.273 571.32 130.186 571.32 132.18V142.79H213.4V133.79C213.406 131.365 214.373 129.041 216.091 127.33C217.809 125.618 220.135 124.658 222.56 124.66Z" fill="#EBEBEB"/>
<path d="M224.801 136.62C226.187 136.62 227.311 135.496 227.311 134.11C227.311 132.724 226.187 131.6 224.801 131.6C223.415 131.6 222.291 132.724 222.291 134.11C222.291 135.496 223.415 136.62 224.801 136.62Z" fill="#E0E0E0"/>
<path d="M232.301 136.62C233.687 136.62 234.811 135.496 234.811 134.11C234.811 132.724 233.687 131.6 232.301 131.6C230.915 131.6 229.791 132.724 229.791 134.11C229.791 135.496 230.915 136.62 232.301 136.62Z" fill="#E0E0E0"/>
<path d="M239.42 136.62C240.806 136.62 241.93 135.496 241.93 134.11C241.93 132.724 240.806 131.6 239.42 131.6C238.034 131.6 236.91 132.724 236.91 134.11C236.91 135.496 238.034 136.62 239.42 136.62Z" fill="#E0E0E0"/>
<path d="M504.201 387.85C504.201 387.96 454.651 388.06 393.551 388.06C332.451 388.06 282.891 387.96 282.891 387.85C282.891 387.74 332.431 387.64 393.551 387.64C454.671 387.64 504.201 387.73 504.201 387.85Z" fill="#263238"/>
<path d="M570.5 172.13H213.52V251.82H570.5V172.13Z" fill="#F5F5F5"/>
<path d="M273.811 151.14H222.291V164.62H273.811V151.14Z" fill="#F5F5F5"/>
<path d="M562.03 151.14H533.82V164.62H562.03V151.14Z" fill="#F5F5F5"/>
<path d="M525.34 151.14H479.18V164.62H525.34V151.14Z" fill="#F5F5F5"/>
<path d="M469.58 151.14H423.42V164.62H469.58V151.14Z" fill="#F5F5F5"/>
<path d="M545.52 274.27H230.9V288.39H545.52V274.27Z" fill="#F5F5F5"/>
<path d="M545.52 300.55H230.9V314.67H545.52V300.55Z" fill="#F5F5F5"/>
<path d="M354.791 220.05L363.461 211.38L378.581 225.16L405.241 198.54L413.291 207.21L377.341 241.89L354.791 220.05Z" fill="#37DEF5"/>
<path d="M367.26 199.71C365.07 197.681 363.132 195.394 361.49 192.9C362.638 193.859 363.671 194.946 364.57 196.14C365.595 197.228 366.497 198.425 367.26 199.71Z" fill="#263238"/>
<path d="M378.89 198.45C378.478 195.236 378.241 192.001 378.18 188.76C377.951 185.529 377.891 182.288 378 179.05C378.406 182.265 378.64 185.5 378.7 188.74C378.936 191.971 378.999 195.213 378.89 198.45Z" fill="#263238"/>
<path d="M396.859 192.51C395.132 195.248 393.121 197.795 390.859 200.11C391.643 198.678 392.582 197.337 393.659 196.11C394.598 194.802 395.671 193.596 396.859 192.51Z" fill="#263238"/>
<path d="M636.171 194.23H487.901C483.886 194.23 480.631 197.485 480.631 201.5V420.6C480.631 424.615 483.886 427.87 487.901 427.87H636.171C640.186 427.87 643.441 424.615 643.441 420.6V201.5C643.441 197.485 640.186 194.23 636.171 194.23Z" fill="#E0E0E0"/>
<path d="M636.171 427.87H636.681C637.18 427.837 637.673 427.746 638.151 427.6C639.095 427.326 639.974 426.863 640.734 426.239C641.494 425.615 642.119 424.843 642.571 423.97C642.882 423.361 643.107 422.711 643.241 422.04C643.361 421.29 643.405 420.529 643.371 419.77C643.371 418.16 643.371 416.41 643.371 414.51C643.371 410.71 643.371 406.32 643.371 401.39C643.371 381.64 643.321 353.07 643.281 317.76C643.281 300.11 643.281 280.76 643.281 260.02C643.281 249.64 643.281 238.917 643.281 227.85C643.281 222.317 643.281 216.707 643.281 211.02V202.4C643.31 201.691 643.273 200.982 643.171 200.28C643.054 199.582 642.828 198.907 642.501 198.28C641.859 197.011 640.848 195.965 639.601 195.28C638.972 194.947 638.298 194.708 637.601 194.57C636.891 194.452 636.17 194.405 635.451 194.43H487.921C486.284 194.438 484.7 195.007 483.431 196.04C482.178 197.087 481.327 198.536 481.021 200.14C480.896 200.95 480.853 201.771 480.891 202.59V268.66C480.891 294.06 480.891 318.57 480.891 341.91C480.891 365.25 480.891 387.44 480.891 408.2C480.891 410.79 480.891 413.36 480.891 415.91V419.72C480.809 420.951 481.004 422.184 481.461 423.33C481.942 424.442 482.701 425.411 483.664 426.147C484.627 426.882 485.762 427.358 486.961 427.53C487.561 427.602 488.166 427.629 488.771 427.61H494.231H521.941L605.561 427.69L628.291 427.74H634.211H636.211H634.211H628.291L605.561 427.79L521.941 427.87H494.231H488.771C488.15 427.893 487.528 427.866 486.911 427.79C485.641 427.612 484.438 427.112 483.418 426.336C482.397 425.56 481.592 424.536 481.081 423.36C480.602 422.16 480.393 420.87 480.471 419.58V408.26C480.471 387.5 480.471 365.31 480.471 341.97C480.471 318.63 480.471 294.12 480.471 268.72C480.471 256.02 480.471 243.103 480.471 229.97V202.65C480.429 201.797 480.476 200.943 480.611 200.1C480.936 198.374 481.854 196.815 483.208 195.696C484.561 194.576 486.264 193.965 488.021 193.97H635.391C636.14 193.947 636.89 193.994 637.631 194.11C638.369 194.269 639.083 194.528 639.751 194.88C641.078 195.608 642.157 196.715 642.851 198.06C643.192 198.726 643.429 199.441 643.551 200.18C643.66 200.908 643.7 201.644 643.671 202.38V227.79C643.671 238.843 643.671 249.567 643.671 259.96C643.671 280.71 643.671 300.05 643.671 317.7C643.671 353.01 643.611 381.58 643.591 401.33C643.591 406.26 643.591 410.65 643.591 414.45C643.591 416.35 643.591 418.1 643.591 419.71C643.618 420.476 643.568 421.244 643.441 422C643.18 423.32 642.558 424.542 641.643 425.529C640.729 426.516 639.558 427.23 638.261 427.59C637.775 427.726 637.275 427.81 636.771 427.84L636.171 427.87Z" fill="#263238"/>
<path d="M636.171 427.87H636.681C636.851 427.87 637.051 427.87 637.301 427.79C637.589 427.748 637.873 427.685 638.151 427.6C639.099 427.331 639.981 426.87 640.743 426.245C641.506 425.621 642.131 424.846 642.581 423.97C642.899 423.362 643.128 422.713 643.261 422.04C643.38 421.286 643.427 420.523 643.401 419.76C643.401 418.16 643.401 416.4 643.401 414.5C643.401 410.7 643.401 406.327 643.401 401.38C643.401 381.63 643.401 353.06 643.401 317.75C643.401 300.1 643.401 280.75 643.401 260.01C643.401 249.63 643.401 238.907 643.401 227.84V202.4C643.427 201.688 643.387 200.975 643.281 200.27C643.165 199.572 642.939 198.897 642.611 198.27C641.95 197.005 640.931 195.962 639.681 195.27C639.05 194.942 638.377 194.7 637.681 194.55C636.968 194.433 636.244 194.386 635.521 194.41H487.921C486.263 194.409 484.656 194.987 483.378 196.044C482.1 197.101 481.231 198.571 480.921 200.2C480.802 201.018 480.759 201.845 480.791 202.67V268.74C480.791 294.14 480.791 318.65 480.791 341.99C480.791 365.33 480.791 387.52 480.791 408.28C480.791 410.874 480.791 413.444 480.791 415.99V419.8C480.776 420.425 480.806 421.05 480.881 421.67C480.969 422.279 481.134 422.873 481.371 423.44C481.858 424.564 482.624 425.544 483.598 426.286C484.571 427.029 485.719 427.509 486.931 427.68C487.535 427.752 488.144 427.779 488.751 427.76H521.921L605.541 427.82H628.271H634.191H636.191H634.191H628.271H605.541L521.921 427.88H488.721C488.104 427.898 487.485 427.872 486.871 427.8C485.615 427.622 484.425 427.125 483.415 426.357C482.405 425.588 481.608 424.574 481.101 423.41C480.851 422.822 480.68 422.203 480.591 421.57C480.507 420.937 480.477 420.298 480.501 419.66V408.26C480.501 387.5 480.501 365.32 480.501 341.97C480.501 318.62 480.501 294.12 480.501 268.72V202.65C480.46 201.805 480.504 200.957 480.631 200.12C480.954 198.416 481.862 196.878 483.199 195.773C484.536 194.668 486.217 194.066 487.951 194.07H635.391C636.134 194.047 636.877 194.094 637.611 194.21C638.343 194.367 639.049 194.623 639.711 194.97C641.02 195.69 642.085 196.783 642.771 198.11C643.108 198.768 643.344 199.472 643.471 200.2C643.581 200.925 643.621 201.658 643.591 202.39C643.591 205.27 643.591 208.13 643.591 210.97V227.8C643.591 238.854 643.591 249.577 643.591 259.97C643.591 280.72 643.591 300.06 643.591 317.71C643.591 353.02 643.591 381.59 643.591 401.34C643.591 406.28 643.591 410.654 643.591 414.46C643.591 416.36 643.591 418.12 643.591 419.72C643.619 420.487 643.569 421.254 643.441 422.01C643.075 423.835 642.027 425.451 640.511 426.53C639.831 427.009 639.073 427.367 638.271 427.59C637.99 427.676 637.703 427.739 637.411 427.78C637.207 427.817 636.999 427.837 636.791 427.84L636.171 427.87Z" fill="#263238"/>
<path d="M568.281 416.13C568.281 417.366 567.915 418.574 567.228 419.602C566.541 420.63 565.565 421.431 564.423 421.904C563.281 422.377 562.024 422.501 560.812 422.26C559.6 422.019 558.486 421.423 557.612 420.549C556.738 419.675 556.143 418.562 555.901 417.349C555.66 416.137 555.784 414.88 556.257 413.738C556.73 412.596 557.531 411.62 558.559 410.933C559.587 410.246 560.795 409.88 562.031 409.88C563.689 409.88 565.279 410.538 566.451 411.71C567.623 412.883 568.281 414.472 568.281 416.13Z" fill="white"/>
<path d="M582.371 205.46H549.121C548.816 205.46 548.515 205.4 548.234 205.283C547.953 205.166 547.698 204.995 547.484 204.78C547.269 204.564 547.099 204.308 546.984 204.027C546.868 203.745 546.809 203.444 546.811 203.14C546.809 202.836 546.868 202.534 546.984 202.253C547.099 201.971 547.269 201.716 547.484 201.5C547.698 201.284 547.953 201.113 548.234 200.997C548.515 200.88 548.816 200.82 549.121 200.82H582.371C582.675 200.82 582.977 200.88 583.258 200.996C583.54 201.113 583.796 201.284 584.011 201.499C584.227 201.715 584.397 201.971 584.514 202.252C584.631 202.533 584.691 202.835 584.691 203.14C584.691 203.444 584.631 203.746 584.514 204.028C584.397 204.309 584.227 204.565 584.011 204.78C583.796 204.996 583.54 205.167 583.258 205.283C582.977 205.4 582.675 205.46 582.371 205.46Z" fill="#EBEBEB"/>
<path d="M635.731 210.9H488.051C486.709 210.9 485.621 211.988 485.621 213.33V403.59C485.621 404.932 486.709 406.02 488.051 406.02H635.731C637.073 406.02 638.161 404.932 638.161 403.59V213.33C638.161 211.988 637.073 210.9 635.731 210.9Z" fill="white"/>
<path d="M635.73 406C635.73 406 635.88 406 636.17 405.94C636.606 405.851 637.01 405.647 637.34 405.35C637.607 405.104 637.816 404.801 637.951 404.463C638.086 404.126 638.144 403.763 638.12 403.4C638.12 402.53 638.12 401.51 638.12 400.4C638.12 395.79 638.12 389 638.07 380.27C638.07 362.77 638.07 337.47 637.99 306.21C637.99 290.57 637.99 273.45 637.99 255.07C637.99 245.87 637.99 236.374 637.99 226.58V213.58C638.03 213 637.852 212.426 637.49 211.97C637.122 211.527 636.594 211.247 636.02 211.19C635.43 211.19 634.77 211.19 634.14 211.19H622.57H488.07C487.737 211.189 487.408 211.263 487.108 211.409C486.808 211.555 486.545 211.767 486.34 212.03C486.138 212.296 485.998 212.603 485.93 212.93C485.882 213.281 485.866 213.636 485.88 213.99V279.18C485.88 301.68 485.88 323.38 485.88 344.05C485.88 364.72 485.88 384.37 485.88 402.76V403.62C485.884 404.012 485.99 404.397 486.189 404.736C486.387 405.074 486.67 405.355 487.01 405.55C487.489 405.793 488.027 405.89 488.56 405.83H534.56L608.62 405.91H628.75H633.99H635.77L634 406H628.76L608.63 406.05L534.57 406.13H510.03H488.52C487.913 406.184 487.304 406.066 486.76 405.79C486.213 405.484 485.794 404.99 485.58 404.4C485.469 404.11 485.412 403.801 485.41 403.49V402.63C485.41 384.24 485.41 364.63 485.41 343.92C485.41 323.21 485.41 301.55 485.41 279.05V244.83C485.41 239.017 485.41 233.167 485.41 227.28V214C485.397 213.613 485.417 213.224 485.47 212.84C485.551 212.435 485.726 212.055 485.98 211.73C486.232 211.403 486.557 211.137 486.928 210.955C487.299 210.773 487.707 210.679 488.12 210.68H622.62H634.13C634.78 210.68 635.38 210.68 636.06 210.68C636.408 210.721 636.745 210.831 637.05 211.003C637.356 211.174 637.624 211.404 637.84 211.68C638.272 212.216 638.489 212.893 638.45 213.58V226.58C638.45 236.374 638.45 245.87 638.45 255.07C638.45 273.45 638.45 290.57 638.45 306.21C638.45 337.47 638.38 362.77 638.36 380.27C638.36 389 638.36 395.79 638.36 400.4C638.36 401.55 638.36 402.57 638.36 403.4C638.381 403.775 638.318 404.149 638.174 404.495C638.03 404.841 637.81 405.151 637.53 405.4C637.197 405.703 636.784 405.904 636.34 405.98C636.14 406.024 635.933 406.03 635.73 406Z" fill="#263238"/>
<path d="M637.541 238.69H486.541V293.97H637.541V238.69Z" fill="#F5F5F5"/>
<path d="M525.64 219.98H489.9V229.33H525.64V219.98Z" fill="#F5F5F5"/>
<path d="M634.551 219.98H602.531V229.33H634.551V219.98Z" fill="#F5F5F5"/>
<path d="M596.44 219.98H564.42V229.33H596.44V219.98Z" fill="#F5F5F5"/>
<path d="M624.842 322.44H495.922V332.24H624.842V322.44Z" fill="#F5F5F5"/>
<path d="M624.842 303.91H495.922V313.71H624.842V303.91Z" fill="#F5F5F5"/>
<path d="M624.842 360.39H495.922V370.19H624.842V360.39Z" fill="#F5F5F5"/>
<path d="M624.842 341.86H495.922V351.66H624.842V341.86Z" fill="#F5F5F5"/>
<path d="M532.781 287.35L541.461 278.68L556.581 292.46L583.231 265.84L591.281 274.51L555.341 309.19L532.781 287.35Z" fill="#37DEF5"/>
<path d="M685.271 428.15H622.191C618.554 428.153 615.065 426.711 612.49 424.142C609.915 421.573 608.466 418.087 608.461 414.45V256.78C608.454 254.969 608.806 253.174 609.496 251.499C610.187 249.824 611.201 248.302 612.482 247.021C613.763 245.741 615.285 244.726 616.96 244.036C618.635 243.345 620.43 242.993 622.241 243H685.321C687.122 242.997 688.906 243.35 690.571 244.037C692.236 244.724 693.75 245.733 695.025 247.005C696.3 248.277 697.312 249.788 698.003 251.452C698.693 253.115 699.05 254.899 699.051 256.7V414.37C699.058 416.182 698.706 417.976 698.016 419.651C697.325 421.326 696.311 422.848 695.03 424.129C693.749 425.41 692.227 426.424 690.552 427.115C688.877 427.805 687.082 428.157 685.271 428.15Z" fill="#263238"/>
<path d="M685.712 247.78L673.441 247.72C673.039 247.72 672.641 247.801 672.27 247.958C671.899 248.115 671.564 248.344 671.284 248.634C671.004 248.923 670.785 249.266 670.64 249.641C670.496 250.017 670.428 250.418 670.441 250.82V253.05C670.448 253.451 670.376 253.848 670.229 254.221C670.081 254.594 669.862 254.934 669.584 255.221C669.305 255.509 668.972 255.739 668.605 255.899C668.237 256.058 667.842 256.143 667.441 256.15L643.522 256C643.118 255.994 642.721 255.907 642.351 255.746C641.981 255.585 641.647 255.352 641.368 255.061C641.09 254.77 640.871 254.426 640.726 254.05C640.58 253.674 640.511 253.273 640.522 252.87V250.64C640.531 250.237 640.46 249.837 640.315 249.461C640.169 249.086 639.95 248.743 639.671 248.452C639.393 248.161 639.059 247.928 638.69 247.767C638.321 247.605 637.924 247.518 637.522 247.51H633.201L622.462 247.46C619.9 247.452 617.441 248.46 615.622 250.264C613.803 252.068 612.775 254.519 612.761 257.08L612.191 412C612.186 413.267 612.431 414.523 612.911 415.696C613.391 416.869 614.097 417.936 614.99 418.835C615.882 419.735 616.943 420.45 618.112 420.94C619.28 421.43 620.534 421.685 621.801 421.69L685.001 422C687.562 422.011 690.022 421.004 691.84 419.202C693.659 417.401 694.688 414.95 694.701 412.39L695.351 257.51C695.362 256.237 695.121 254.974 694.641 253.795C694.161 252.615 693.453 251.543 692.557 250.638C691.661 249.734 690.595 249.016 689.42 248.525C688.245 248.034 686.985 247.781 685.712 247.78Z" fill="white"/>
<path d="M694.86 275.35H612.66V305.44H694.86V275.35Z" fill="#F5F5F5"/>
<path d="M633.94 265.16H614.49V270.25H633.94V265.16Z" fill="#F5F5F5"/>
<path d="M693.231 265.16H675.801V270.25H693.231V265.16Z" fill="#F5F5F5"/>
<path d="M672.491 265.16H655.061V270.25H672.491V265.16Z" fill="#F5F5F5"/>
<path d="M687.942 320.94H617.762V326.27H687.942V320.94Z" fill="#F5F5F5"/>
<path d="M687.942 310.85H617.762V316.18H687.942V310.85Z" fill="#F5F5F5"/>
<path d="M687.942 341.6H617.762V346.93H687.942V341.6Z" fill="#F5F5F5"/>
<path d="M687.942 351.03H617.762V356.36H687.942V351.03Z" fill="#F5F5F5"/>
<path d="M687.942 361.82H617.762V367.15H687.942V361.82Z" fill="#F5F5F5"/>
<path d="M687.942 372.6H617.762V377.93H687.942V372.6Z" fill="#F5F5F5"/>
<path d="M687.942 383.39H617.762V388.72H687.942V383.39Z" fill="#F5F5F5"/>
<path d="M687.942 331.51H617.762V336.84H687.942V331.51Z" fill="#F5F5F5"/>
<path d="M631.5 341.02L638.28 334.24L651.37 345.87L677.07 321.14L683.37 327.93L650.4 358.96L631.5 341.02Z" fill="#37DEF5"/>
<path d="M297.6 243.22H53.5798C45.533 243.22 39.0098 249.743 39.0098 257.79V409.29C39.0098 417.337 45.533 423.86 53.5798 423.86H297.6C305.647 423.86 312.17 417.337 312.17 409.29V257.79C312.17 249.743 305.647 243.22 297.6 243.22Z" fill="#263238"/>
<path d="M28.3398 412.19H324.28V412.89C324.28 416.895 322.689 420.736 319.857 423.568C317.025 426.4 313.185 427.99 309.18 427.99H43.4398C39.4351 427.99 35.5943 426.4 32.7625 423.568C29.9307 420.736 28.3398 416.895 28.3398 412.89V412.19Z" fill="#263238"/>
<path d="M304.08 250.4H46.3496V402.95H304.08V250.4Z" fill="#263238"/>
<path d="M148.66 410.5L152.34 416.34H204.01L207.42 410.5H148.66Z" fill="#455A64"/>
<path d="M296.02 255.56H54.9204C53.1144 255.56 51.6504 257.024 51.6504 258.83V399.18C51.6504 400.986 53.1144 402.45 54.9204 402.45H296.02C297.826 402.45 299.29 400.986 299.29 399.18V258.83C299.29 257.024 297.826 255.56 296.02 255.56Z" fill="#EBEBEB"/>
<path d="M299.031 402.67H51.3906L51.6506 266.54H299.031V402.67Z" fill="white"/>
<path d="M72 261.24C72 261.636 71.8827 262.022 71.6629 262.351C71.4432 262.68 71.1308 262.937 70.7654 263.088C70.3999 263.239 69.9978 263.279 69.6098 263.202C69.2219 263.125 68.8655 262.934 68.5858 262.654C68.3061 262.375 68.1156 262.018 68.0384 261.63C67.9613 261.242 68.0009 260.84 68.1522 260.475C68.3036 260.109 68.56 259.797 68.8889 259.577C69.2178 259.358 69.6044 259.24 70 259.24C70.5304 259.24 71.0391 259.451 71.4142 259.826C71.7893 260.201 72 260.71 72 261.24Z" fill="#263238"/>
<path d="M60 261.24C60 261.636 59.8827 262.022 59.6629 262.351C59.4432 262.68 59.1308 262.937 58.7654 263.088C58.3999 263.239 57.9978 263.279 57.6098 263.202C57.2219 263.125 56.8655 262.934 56.5858 262.654C56.3061 262.375 56.1156 262.018 56.0384 261.63C55.9613 261.242 56.0009 260.84 56.1522 260.475C56.3036 260.109 56.56 259.797 56.8889 259.577C57.2178 259.358 57.6044 259.24 58 259.24C58.5304 259.24 59.0391 259.451 59.4142 259.826C59.7893 260.201 60 260.71 60 261.24Z" fill="#263238"/>
<path d="M65.7305 261.24C65.7305 261.636 65.6132 262.022 65.3934 262.351C65.1736 262.68 64.8613 262.937 64.4958 263.088C64.1304 263.239 63.7283 263.279 63.3403 263.202C62.9523 263.125 62.596 262.934 62.3163 262.654C62.0366 262.375 61.8461 262.018 61.7689 261.63C61.6917 261.242 61.7313 260.84 61.8827 260.475C62.0341 260.109 62.2904 259.797 62.6193 259.577C62.9482 259.358 63.3349 259.24 63.7305 259.24C64.2609 259.24 64.7696 259.451 65.1447 259.826C65.5198 260.201 65.7305 260.71 65.7305 261.24Z" fill="#263238"/>
<path d="M309.82 410.5C309.82 410.6 249.2 410.68 174.43 410.68C99.66 410.68 39 410.6 39 410.5C39 410.4 99.62 410.32 174.42 410.32C249.22 410.32 309.82 410.4 309.82 410.5Z" fill="#455A64"/>
<path d="M299.29 288.49H51.6504V343.77H299.29V288.49Z" fill="#F5F5F5"/>
<path d="M93.4705 273.93H57.7305V283.28H93.4705V273.93Z" fill="#F5F5F5"/>
<path d="M293.42 273.93H273.85V283.28H293.42V273.93Z" fill="#F5F5F5"/>
<path d="M267.969 273.93H235.949V283.28H267.969V273.93Z" fill="#F5F5F5"/>
<path d="M229.29 273.93H197.27V283.28H229.29V273.93Z" fill="#F5F5F5"/>
<path d="M282.01 376.39H63.75V386.19H282.01V376.39Z" fill="#F5F5F5"/>
<path d="M282.01 357.85H63.75V367.65H282.01V357.85Z" fill="#F5F5F5"/>
<path d="M144.08 325.27L152.76 316.6L169.48 331.46L202.31 299.87L210.36 308.54L168.24 348.19L144.08 325.27Z" fill="#37DEF5"/>
<path d="M245.48 208.34C283.979 208.34 315.19 177.13 315.19 138.63C315.19 100.13 283.979 68.9199 245.48 68.9199C206.98 68.9199 175.77 100.13 175.77 138.63C175.77 177.13 206.98 208.34 245.48 208.34Z" fill="#37DEF5"/>
<path opacity="0.3" d="M245.48 208.34C283.979 208.34 315.19 177.13 315.19 138.63C315.19 100.13 283.979 68.9199 245.48 68.9199C206.98 68.9199 175.77 100.13 175.77 138.63C175.77 177.13 206.98 208.34 245.48 208.34Z" fill="black"/>
<path d="M243.601 203.88C282.1 203.88 313.311 172.67 313.311 134.17C313.311 95.6702 282.1 64.46 243.601 64.46C205.101 64.46 173.891 95.6702 173.891 134.17C173.891 172.67 205.101 203.88 243.601 203.88Z" fill="#37DEF5"/>
<path d="M264.719 184.137C292.305 172.473 305.212 140.654 293.548 113.069C281.884 85.4828 250.066 72.5757 222.48 84.2397C194.894 95.9038 181.987 127.722 193.651 155.308C205.315 182.894 237.133 195.801 264.719 184.137Z" fill="white"/>
<path d="M270.577 161.155C285.479 146.252 285.479 122.091 270.577 107.188C255.674 92.2858 231.513 92.2858 216.61 107.188C201.708 122.091 201.708 146.252 216.61 161.155C231.513 176.057 255.674 176.057 270.577 161.155Z" fill="#FFD166"/>
<path d="M251.607 152.645C261.807 148.223 266.491 136.369 262.068 126.169C257.646 115.969 245.792 111.285 235.592 115.708C225.392 120.13 220.708 131.984 225.131 142.184C229.553 152.384 241.407 157.068 251.607 152.645Z" fill="white"/>
<path d="M297.541 77.7099L295.641 62.8399L310.781 46.6299L311.871 62.6899L297.541 77.7099Z" fill="#455A64"/>
<path d="M330.029 65.8799L314.669 64.6299L299.279 79.4399L314.679 81.0799L330.029 65.8799Z" fill="#455A64"/>
<path opacity="0.3" d="M243.6 135.34L300.83 94.3398C298.638 91.1623 296.212 88.1538 293.57 85.3398L244.57 132.74L243.6 135.34Z" fill="black"/>
<path d="M314.141 59.5799L307.001 66.8599L289.711 84.3399L268.941 105.34C262.941 111.44 256.924 117.537 250.891 123.63C247.971 126.63 244.891 129.47 242.101 132.53L241.971 132.66C240.281 134.38 242.971 137.03 244.631 135.31L251.811 128.03L269.061 110.56L289.831 89.5599C295.831 83.4599 301.847 77.3632 307.881 71.2699C310.801 68.2699 313.881 65.4299 316.671 62.3599L316.791 62.2399C318.491 60.5199 315.791 57.8599 314.141 59.5799Z" fill="#263238"/>
<path d="M437.87 241.25C436.682 241.318 435.511 240.945 434.581 240.203C433.651 239.461 433.027 238.401 432.83 237.228C432.633 236.054 432.876 234.849 433.513 233.844C434.15 232.839 435.135 232.104 436.28 231.78C435.564 230.995 435.117 230.002 435.003 228.946C434.889 227.889 435.115 226.824 435.648 225.904C436.181 224.985 436.993 224.259 437.966 223.832C438.939 223.405 440.023 223.299 441.06 223.53C441.151 222.494 441.509 221.499 442.1 220.643C442.691 219.788 443.494 219.1 444.431 218.648C445.368 218.196 446.406 217.996 447.444 218.066C448.481 218.137 449.483 218.476 450.35 219.05C451.561 218.152 453.038 217.687 454.545 217.729C456.052 217.77 457.501 218.317 458.66 219.28C459.68 219.139 460.718 219.329 461.621 219.823C462.525 220.317 463.245 221.088 463.677 222.023C464.108 222.958 464.228 224.006 464.018 225.014C463.808 226.022 463.279 226.936 462.51 227.62" fill="#263238"/>
<path d="M437.139 241.9C437.783 236.788 440.33 232.106 444.272 228.788C448.214 225.471 453.262 223.761 458.409 224L459.469 224.05C470.859 225.25 476.209 235.59 474.689 246.95L471.259 284.95L470.359 293.9L444.469 290.84L444.959 281.15C444.959 281.15 434.059 278.93 434.439 267.94C434.619 262.64 435.879 251.74 437.139 241.9Z" fill="#99655C"/>
<path d="M444.869 281.13C449.968 281.372 455.029 280.143 459.449 277.59C459.449 277.59 455.699 285.33 444.789 283.83L444.869 281.13Z" fill="#744A45"/>
<path d="M439.559 252C439.537 252.407 439.673 252.806 439.94 253.114C440.207 253.422 440.583 253.614 440.989 253.65C441.188 253.675 441.391 253.66 441.584 253.606C441.777 253.552 441.958 253.46 442.115 253.335C442.273 253.21 442.404 253.055 442.501 252.879C442.597 252.703 442.658 252.51 442.679 252.31C442.701 251.902 442.563 251.501 442.294 251.192C442.025 250.884 441.647 250.693 441.239 250.66C441.04 250.634 440.838 250.648 440.644 250.701C440.451 250.755 440.27 250.847 440.114 250.972C439.957 251.097 439.827 251.253 439.731 251.429C439.636 251.606 439.577 251.8 439.559 252Z" fill="#263238"/>
<path d="M439.25 247.38C439.44 247.59 440.66 246.77 442.35 246.85C444.04 246.93 445.24 247.85 445.43 247.64C445.62 247.43 445.34 247.17 444.82 246.76C444.115 246.218 443.259 245.907 442.37 245.87C441.492 245.826 440.623 246.064 439.89 246.55C439.35 246.92 439.16 247.28 439.25 247.38Z" fill="#263238"/>
<path d="M454.92 252.79C454.9 253.198 455.039 253.598 455.308 253.905C455.576 254.213 455.953 254.405 456.36 254.44C456.559 254.465 456.761 254.45 456.955 254.396C457.148 254.342 457.329 254.25 457.486 254.125C457.644 254 457.775 253.846 457.871 253.67C457.968 253.494 458.029 253.3 458.05 253.1C458.069 252.692 457.93 252.293 457.662 251.985C457.394 251.678 457.016 251.486 456.61 251.45C456.41 251.425 456.208 251.44 456.015 251.494C455.821 251.548 455.641 251.64 455.483 251.765C455.326 251.89 455.195 252.045 455.098 252.221C455.002 252.397 454.941 252.591 454.92 252.79Z" fill="#263238"/>
<path d="M455.82 248.47C456.01 248.68 457.24 247.86 458.92 247.94C460.6 248.02 461.81 248.94 462 248.73C462.19 248.52 461.91 248.26 461.39 247.84C460.682 247.305 459.827 246.999 458.94 246.96C458.062 246.916 457.193 247.154 456.46 247.64C455.92 248 455.73 248.37 455.82 248.47Z" fill="#263238"/>
<path d="M449.11 260.69C448.235 260.375 447.325 260.167 446.4 260.07C445.97 260.01 445.56 259.9 445.5 259.61C445.489 259.162 445.611 258.72 445.85 258.34C446.31 257.34 446.78 256.25 447.28 255.12C449.28 250.53 450.73 246.75 450.54 246.67C450.35 246.59 448.54 250.25 446.61 254.84L445.23 258.08C444.938 258.589 444.832 259.182 444.93 259.76C444.984 259.915 445.074 260.056 445.192 260.17C445.31 260.285 445.453 260.371 445.61 260.42C445.845 260.501 446.091 260.548 446.34 260.56C447.254 260.724 448.185 260.768 449.11 260.69Z" fill="#263238"/>
<path d="M455.46 243.13C455.66 243.57 457.13 243.13 458.91 243.2C460.69 243.27 462.18 243.59 462.37 243.2C462.45 242.99 462.15 242.6 461.52 242.2C460.714 241.748 459.804 241.513 458.88 241.52C457.962 241.504 457.057 241.735 456.26 242.19C455.65 242.53 455.37 242.92 455.46 243.13Z" fill="#263238"/>
<path d="M439.489 240.42C439.829 240.82 441.239 240.48 442.919 240.54C444.599 240.6 445.999 240.95 446.339 240.54C446.499 240.35 446.339 239.96 445.689 239.54C444.857 239.044 443.907 238.782 442.939 238.78C441.975 238.744 441.019 238.965 440.169 239.42C439.559 239.84 439.349 240.22 439.489 240.42Z" fill="#263238"/>
<path d="M438.43 236.91C438.43 236.91 441.65 230.17 445.04 228.72C449.15 226.97 450.67 231.45 454.54 230.56C458.41 229.67 462.34 227.99 466.11 231.13C470.23 234.56 468.11 236.74 468.16 241.62C468.31 261.42 471.65 267.18 473.16 257.92C473.32 256.92 476.16 256.23 476.8 251.92C477.61 246.36 478.14 239.59 477.08 235.57C476.18 232.18 474.39 229.79 471.08 227.08C465.88 222.82 458.48 222.38 453.42 222.66C448.36 222.94 438.38 228.28 438.43 236.91Z" fill="#263238"/>
<path d="M472.429 257.59C472.464 257.189 472.579 256.799 472.767 256.443C472.956 256.087 473.214 255.773 473.527 255.519C473.839 255.265 474.2 255.077 474.587 254.966C474.974 254.854 475.379 254.821 475.779 254.87C477.779 255.16 480.039 256.43 479.709 260.65C479.119 268.15 471.709 266.01 471.709 265.79C471.709 265.57 472.149 260.72 472.429 257.59Z" fill="#99655C"/>
<path d="M473.579 263.1C473.579 263.1 473.699 263.2 473.909 263.32C474.06 263.403 474.227 263.455 474.399 263.472C474.571 263.49 474.744 263.472 474.909 263.42C475.417 263.151 475.843 262.751 476.145 262.263C476.448 261.774 476.615 261.214 476.629 260.64C476.697 259.998 476.622 259.349 476.409 258.74C476.358 258.501 476.249 258.277 476.092 258.089C475.936 257.901 475.735 257.754 475.509 257.66C475.362 257.609 475.201 257.611 475.055 257.666C474.909 257.721 474.787 257.825 474.709 257.96C474.589 258.16 474.629 258.31 474.589 258.32C474.549 258.33 474.439 258.18 474.519 257.88C474.575 257.697 474.692 257.539 474.849 257.43C475.069 257.292 475.335 257.246 475.589 257.3C475.891 257.387 476.165 257.55 476.388 257.772C476.61 257.994 476.772 258.268 476.859 258.57C477.126 259.243 477.225 259.97 477.149 260.69C476.979 262.2 476.099 263.55 474.989 263.78C474.783 263.823 474.57 263.819 474.366 263.769C474.162 263.719 473.972 263.623 473.809 263.49C473.569 263.28 473.549 263.11 473.579 263.1Z" fill="#744A45"/>
<path d="M472.999 243C472.043 243.705 470.926 244.159 469.749 244.32C469.161 244.381 468.571 244.227 468.088 243.887C467.605 243.547 467.261 243.044 467.119 242.47C467.049 241.94 467.209 241.34 466.889 240.92C466.569 240.5 465.739 240.54 465.099 240.58C463.998 240.613 462.919 240.267 462.043 239.599C461.167 238.93 460.548 237.981 460.289 236.91C459.936 237.269 459.462 237.481 458.959 237.505C458.457 237.529 457.964 237.363 457.579 237.04C456.831 236.373 456.178 235.606 455.639 234.76C455.367 234.337 454.995 233.986 454.555 233.741C454.116 233.495 453.622 233.361 453.119 233.35C452.58 233.502 452.027 233.596 451.469 233.63C450.469 233.5 450.059 232.32 449.959 231.33C449.859 230.34 449.799 229.2 448.959 228.63C448.119 228.06 447.189 228.34 446.269 228.43C445.349 228.52 444.199 228.25 444.009 227.36C443.98 227.12 444 226.876 444.069 226.644C444.138 226.412 444.254 226.196 444.409 226.01C445.062 225.133 445.991 224.501 447.047 224.217C448.103 223.932 449.224 224.011 450.229 224.44C450.658 223.209 451.443 222.132 452.484 221.346C453.524 220.559 454.775 220.099 456.077 220.023C457.379 219.947 458.675 220.259 459.8 220.919C460.925 221.579 461.829 222.557 462.399 223.73C463.232 223.039 464.22 222.56 465.279 222.334C466.338 222.108 467.436 222.143 468.478 222.435C469.52 222.727 470.476 223.268 471.264 224.011C472.051 224.754 472.647 225.677 472.999 226.7C473.926 226.515 474.886 226.604 475.763 226.956C476.64 227.308 477.395 227.908 477.936 228.683C478.477 229.457 478.781 230.373 478.81 231.317C478.839 232.262 478.592 233.194 478.099 234C478.78 234.379 479.354 234.924 479.767 235.586C480.18 236.247 480.418 237.002 480.459 237.78C480.459 239.34 478.829 240.78 477.349 240.34C477.618 240.966 477.64 241.67 477.411 242.311C477.181 242.953 476.717 243.483 476.111 243.795C475.506 244.107 474.805 244.178 474.149 243.993C473.494 243.809 472.933 243.382 472.579 242.8" fill="#263238"/>
<path d="M449.56 226.66C449.553 226.707 449.553 226.754 449.56 226.8C449.548 226.933 449.548 227.067 449.56 227.2C449.632 227.713 449.791 228.21 450.03 228.67C450.412 229.403 450.956 230.039 451.62 230.53C452.485 231.179 453.538 231.53 454.62 231.53L454.5 231.35C454.241 232.023 454.259 232.771 454.55 233.43C454.852 234.123 455.257 234.767 455.75 235.34C455.986 235.666 456.254 235.968 456.55 236.24C457.087 236.634 457.748 236.825 458.413 236.777C459.078 236.73 459.704 236.447 460.18 235.98L459.9 235.89C459.969 236.674 460.201 237.435 460.582 238.124C460.962 238.813 461.483 239.415 462.11 239.89C462.796 240.45 463.645 240.773 464.53 240.81C465.368 240.811 466.2 240.669 466.99 240.39L466.79 240.29C467.133 241.219 467.708 242.046 468.46 242.69C468.801 243.012 469.21 243.254 469.656 243.399C470.102 243.544 470.575 243.589 471.04 243.53C471.837 243.396 472.578 243.033 473.171 242.484C473.765 241.935 474.185 241.225 474.38 240.44L474.2 240.51C474.97 240.967 475.874 241.144 476.76 241.01C477.423 240.924 478.054 240.677 478.6 240.29C478.944 240.056 479.242 239.761 479.48 239.42C479.561 239.3 479.631 239.173 479.69 239.04C479.369 239.484 478.977 239.873 478.53 240.19C477.99 240.538 477.378 240.757 476.74 240.83C475.899 240.936 475.047 240.757 474.32 240.32L474.19 240.23V240.39C473.996 241.12 473.595 241.777 473.037 242.285C472.478 242.792 471.785 243.127 471.04 243.25C470.616 243.302 470.185 243.259 469.78 243.122C469.375 242.985 469.006 242.759 468.7 242.46C467.996 241.846 467.456 241.066 467.13 240.19V240.04L466.98 240.09C466.228 240.353 465.437 240.488 464.64 240.49C463.817 240.454 463.027 240.153 462.39 239.63C461.799 239.179 461.309 238.61 460.951 237.96C460.593 237.309 460.375 236.59 460.31 235.85V235.49L460.06 235.76C459.778 236.037 459.434 236.241 459.056 236.356C458.678 236.471 458.278 236.493 457.89 236.42C457.526 236.363 457.182 236.215 456.89 235.99C456.609 235.737 456.354 235.455 456.13 235.15C455.655 234.599 455.261 233.983 454.96 233.32C454.686 232.729 454.658 232.053 454.88 231.44L454.95 231.26H454.76C453.714 231.268 452.694 230.938 451.85 230.32C451.203 229.861 450.666 229.263 450.28 228.57C449.934 227.979 449.691 227.333 449.56 226.66Z" fill="#455A64"/>
<path d="M447.189 266.22C447.189 266.29 447.579 266.55 448.339 266.72C449.341 266.912 450.375 266.86 451.353 266.569C452.33 266.279 453.224 265.758 453.959 265.05C454.509 264.5 454.709 264.05 454.649 264.05C454.589 264.05 453.309 265.4 451.169 266.05C449.029 266.7 447.239 266 447.189 266.22Z" fill="#263238"/>
<path d="M422.45 389.1L488.94 390.01C488.94 390.01 507.54 382.23 512.65 382.01C517.76 381.79 527.9 382.45 532.59 390.01C537.44 397.82 538.12 411.58 523.17 421.59C508.62 431.33 442.08 440.34 432.96 439.51L416.14 416.94C416.14 416.94 415.97 398.44 416.14 397.56C416.31 396.68 419.14 388.75 419.14 388.75L422.45 389.1Z" fill="#263238"/>
<path d="M459.36 419L499.07 433.75L481 483.24C476.38 481.24 476.25 452.15 476.25 452.15L450.42 443.75L459.36 419Z" fill="#FFD166"/>
<g opacity="0.6">
<path d="M479.67 436.07C479.988 435.645 480.452 435.353 480.972 435.249C481.493 435.146 482.033 435.239 482.49 435.51C482.922 435.815 483.221 436.274 483.327 436.792C483.433 437.31 483.337 437.85 483.06 438.3C482.719 438.749 482.223 439.056 481.669 439.161C481.115 439.267 480.542 439.163 480.06 438.87C479.628 438.506 479.358 437.987 479.307 437.425C479.257 436.864 479.43 436.305 479.79 435.87" fill="white"/>
</g>
<path d="M499.07 433.76L495.07 432.27L479.18 480.37C479.18 480.37 479.34 482.93 480.98 483.24L499.07 433.76Z" fill="#263238"/>
<path d="M475.669 452.86C475.919 452.94 476.469 451.78 477.669 450.86C478.869 449.94 480.129 449.69 480.119 449.44C480.109 449.19 478.569 449.03 477.119 450.15C475.669 451.27 475.429 452.83 475.669 452.86Z" fill="#263238"/>
<path d="M475.919 458.84C476.139 458.98 476.919 458.08 478.249 457.64C479.579 457.2 480.739 457.35 480.819 457.1C480.899 456.85 479.589 456.2 477.949 456.79C476.309 457.38 475.689 458.75 475.919 458.84Z" fill="#263238"/>
<path d="M481.06 464.06C481.19 463.86 480.06 463.06 478.55 463.22C477.04 463.38 476.06 464.29 476.23 464.47C476.4 464.65 477.36 464.2 478.63 464.11C479.9 464.02 481 464.29 481.06 464.06Z" fill="#263238"/>
<path d="M469.999 450.29C470.259 450.29 470.329 449.04 470.919 447.71C471.509 446.38 472.329 445.47 472.169 445.27C472.009 445.07 470.779 445.78 470.099 447.36C469.419 448.94 469.769 450.34 469.999 450.29Z" fill="#263238"/>
<path d="M464.56 447C465.079 446.271 465.387 445.413 465.45 444.52C465.621 443.567 465.675 442.596 465.61 441.63C465.566 441.059 465.486 440.491 465.37 439.93C465.324 439.582 465.219 439.244 465.06 438.93C464.948 438.709 464.765 438.531 464.54 438.426C464.316 438.321 464.062 438.294 463.82 438.35C463.606 438.408 463.409 438.516 463.245 438.665C463.081 438.815 462.956 439.002 462.88 439.21C462.759 439.531 462.685 439.868 462.66 440.21C462.611 440.789 462.611 441.371 462.66 441.95C462.731 442.922 462.954 443.877 463.32 444.78C463.97 446.32 464.73 447.04 464.8 446.97C464.87 446.9 464.37 446.06 463.92 444.57C463.664 443.702 463.516 442.805 463.48 441.9C463.466 441.372 463.497 440.844 463.57 440.32C463.57 439.75 463.78 439.32 464.06 439.25C464.17 439.25 464.21 439.25 464.32 439.41C464.429 439.631 464.503 439.867 464.54 440.11C464.667 440.63 464.757 441.158 464.81 441.69C464.915 442.6 464.932 443.517 464.86 444.43C464.698 445.279 464.598 446.137 464.56 447Z" fill="#263238"/>
<path d="M464.999 446.78C465.069 446.71 464.379 445.91 462.849 445.25C461.402 444.647 459.819 444.45 458.269 444.68C457.893 444.693 457.527 444.803 457.207 444.999C456.886 445.196 456.621 445.471 456.439 445.8C456.364 446.023 456.355 446.263 456.411 446.492C456.468 446.72 456.589 446.928 456.759 447.09C457.001 447.323 457.273 447.521 457.569 447.68C458.092 447.966 458.655 448.172 459.239 448.29C460.217 448.493 461.23 448.452 462.189 448.17C463.829 447.67 464.479 446.77 464.409 446.72C463.634 447.037 462.843 447.314 462.039 447.55C461.171 447.72 460.276 447.696 459.419 447.48C458.924 447.359 458.449 447.167 458.009 446.91C457.509 446.65 457.159 446.29 457.279 446.12C457.414 445.948 457.585 445.808 457.78 445.709C457.976 445.611 458.19 445.556 458.409 445.55C458.927 445.459 459.453 445.415 459.979 445.42C460.878 445.439 461.77 445.583 462.629 445.85C464.129 446.31 464.939 446.9 464.999 446.78Z" fill="#263238"/>
<path d="M437.449 418L401.879 434.5L422.179 478.87C426.299 476.67 424.309 449.82 424.309 449.82L447.529 440.19L437.449 418Z" fill="#FFD166"/>
<g opacity="0.6">
<path d="M419.999 435.2C419.672 434.836 419.223 434.604 418.736 434.548C418.25 434.493 417.76 434.618 417.359 434.9C416.98 435.21 416.735 435.654 416.673 436.139C416.612 436.625 416.739 437.116 417.029 437.51C417.376 437.898 417.853 438.144 418.37 438.201C418.887 438.258 419.406 438.123 419.829 437.82C420.184 437.448 420.382 436.954 420.382 436.44C420.382 435.926 420.184 435.432 419.829 435.06" fill="white"/>
</g>
<path d="M401.879 434.48L405.469 432.82L423.629 476.07C423.629 476.07 423.629 478.44 422.179 478.85L401.879 434.48Z" fill="#263238"/>
<path d="M424.86 450.42C424.64 450.51 424.05 449.47 422.86 448.73C421.67 447.99 420.51 447.83 420.5 447.59C420.49 447.35 421.9 447.1 423.31 448.03C424.72 448.96 425.08 450.37 424.86 450.42Z" fill="#263238"/>
<path d="M425.069 456C424.879 456.15 424.069 455.38 422.829 455.06C421.589 454.74 420.509 454.98 420.419 454.76C420.329 454.54 421.489 453.84 423.039 454.26C424.589 454.68 425.269 455.85 425.069 456Z" fill="#263238"/>
<path d="M420.709 461.15C420.569 460.97 421.509 460.15 422.949 460.15C424.389 460.15 425.329 460.96 425.189 461.15C425.049 461.34 424.129 461 422.999 461C421.869 461 420.829 461.35 420.709 461.15Z" fill="#263238"/>
<path d="M429.91 447.64C429.67 447.64 429.52 446.5 428.91 445.32C428.3 444.14 427.45 443.32 427.58 443.16C427.71 443 428.91 443.52 429.64 444.93C430.37 446.34 430.13 447.66 429.91 447.64Z" fill="#263238"/>
<path d="M434.689 444.17C434.161 443.531 433.815 442.76 433.689 441.94C433.461 441.075 433.343 440.185 433.339 439.29C433.331 438.759 433.361 438.227 433.429 437.7C433.456 437.389 433.527 437.082 433.639 436.79C433.724 436.574 433.881 436.394 434.083 436.281C434.286 436.168 434.521 436.129 434.749 436.17C434.951 436.207 435.14 436.292 435.302 436.417C435.464 436.543 435.593 436.705 435.679 436.89C435.813 437.172 435.904 437.472 435.949 437.78C436.045 438.305 436.099 438.837 436.109 439.37C436.114 440.276 435.976 441.177 435.699 442.04C435.219 443.5 434.569 444.23 434.489 444.17C434.409 444.11 434.819 443.3 435.129 441.89C435.304 441.069 435.375 440.229 435.339 439.39C435.318 438.902 435.254 438.417 435.149 437.94C435.059 437.41 434.879 437.01 434.619 436.99C434.519 436.99 434.479 436.99 434.389 437.15C434.306 437.365 434.252 437.591 434.229 437.82C434.159 438.33 434.119 438.82 434.099 439.3C434.075 440.143 434.128 440.987 434.259 441.82C434.46 442.592 434.604 443.378 434.689 444.17Z" fill="#263238"/>
<path d="M434.25 444C434.18 443.94 434.76 443.15 436.13 442.43C436.935 442.018 437.804 441.745 438.7 441.62C439.235 441.564 439.775 441.564 440.31 441.62C440.658 441.603 441.004 441.677 441.314 441.835C441.625 441.993 441.889 442.229 442.08 442.52C442.167 442.721 442.195 442.943 442.16 443.159C442.124 443.376 442.027 443.577 441.88 443.74C441.674 443.974 441.434 444.176 441.17 444.34C439.922 445.148 438.404 445.428 436.95 445.12C435.4 444.78 434.73 444 434.79 443.95C434.85 443.9 435.63 444.39 437.04 444.55C437.852 444.634 438.674 444.546 439.45 444.29C439.902 444.143 440.33 443.931 440.72 443.66C441.16 443.38 441.46 443.03 441.33 442.87C441.19 442.724 441.02 442.609 440.832 442.533C440.644 442.457 440.442 442.422 440.24 442.43C439.757 442.385 439.272 442.385 438.79 442.43C437.96 442.512 437.146 442.707 436.37 443.01C435 443.53 434.34 444.13 434.25 444Z" fill="#263238"/>
<path d="M419.139 388.75C419.139 388.75 390.419 378.03 379.849 379.42C373.939 380.19 364.699 384.7 363.999 392.28C363.299 399.86 365.139 409.98 375.359 414.92C385.579 419.86 426.359 438.15 436.049 440.97C445.739 443.79 469.899 450.39 469.899 450.39L479.069 424.23C479.069 424.23 428.999 406.9 426.359 405C423.719 403.1 417.019 400.42 417.019 400.42L419.139 388.75Z" fill="#263238"/>
<path d="M519 392.31L518.8 392.26L518.23 392.08C517.72 391.93 516.97 391.71 515.99 391.48C514.806 391.189 513.603 390.978 512.39 390.85C510.784 390.7 509.167 390.7 507.56 390.85C505.611 391.012 503.684 391.377 501.81 391.94C500.78 392.255 499.777 392.653 498.81 393.13L495.69 394.65C491.39 396.65 486.59 398.81 481.48 400.83C471.25 404.93 461.43 406.83 454.43 408.46C450.91 409.24 448.07 409.88 446.11 410.34L443.86 410.88L443.27 411.01H443.07L443.26 410.94L443.84 410.78C444.36 410.64 445.11 410.43 446.09 410.19C448.09 409.69 450.87 409.01 454.38 408.19C461.38 406.54 471.17 404.57 481.38 400.48C486.48 398.48 491.28 396.37 495.57 394.33L498.7 392.82C499.692 392.34 500.722 391.945 501.78 391.64C503.67 391.078 505.614 390.72 507.58 390.57C509.2 390.418 510.831 390.418 512.45 390.57C513.669 390.707 514.876 390.934 516.06 391.25C517.06 391.5 517.78 391.74 518.28 391.91L518.85 392.12L519 392.31Z" fill="#455A64"/>
<path d="M517.449 388.52C517.449 388.57 516.579 388.42 515.169 388.27C513.34 388.069 511.497 388.016 509.659 388.11C507.82 388.205 505.991 388.446 504.189 388.83C502.809 389.12 501.959 389.37 501.949 389.32C502.129 389.219 502.32 389.142 502.519 389.09C502.899 388.96 503.449 388.79 504.139 388.62C505.941 388.166 507.783 387.891 509.639 387.8C511.496 387.704 513.358 387.788 515.199 388.05C515.899 388.15 516.469 388.26 516.859 388.35C517.062 388.381 517.261 388.438 517.449 388.52Z" fill="#455A64"/>
<path d="M407.06 396.35C407.06 396.35 406.23 395.77 404.85 394.92C403.058 393.815 401.154 392.903 399.17 392.2C397.18 391.503 395.122 391.017 393.03 390.75C391.43 390.55 390.42 390.53 390.42 390.48C390.656 390.451 390.894 390.451 391.13 390.48C391.774 390.478 392.418 390.508 393.06 390.57C395.177 390.78 397.261 391.24 399.27 391.94C401.278 392.651 403.193 393.605 404.97 394.78C405.512 395.13 406.032 395.51 406.53 395.92C406.722 396.043 406.9 396.187 407.06 396.35Z" fill="#455A64"/>
<path d="M421.469 435.36L421.689 435.44L422.349 435.72C422.919 435.95 423.759 436.35 424.879 436.78C427.119 437.66 430.419 438.88 434.659 440.27C443.149 443.05 455.339 446.58 469.929 450.27L469.759 450.36L478.639 425.72L478.729 425.91L467.729 421.4L406.899 396.4C404.429 393.78 402.149 391.47 400.019 389.61C398.209 388.007 396.277 386.549 394.239 385.25C392.944 384.446 391.609 383.708 390.239 383.04L389.169 382.55L388.809 382.37C388.935 382.413 389.058 382.463 389.179 382.52L390.259 382.99C391.634 383.632 392.97 384.357 394.259 385.16C396.309 386.446 398.255 387.89 400.079 389.48C402.229 391.34 404.529 393.64 407.019 396.26L467.889 421.2L478.889 425.72L479.029 425.78L478.979 425.91C475.809 434.67 472.799 443 470.079 450.55V450.67H469.959C455.369 446.97 443.179 443.4 434.709 440.58C430.479 439.17 427.179 437.92 424.949 437.01C423.829 436.56 422.949 436.15 422.429 435.91L421.779 435.61L421.469 435.36Z" fill="#455A64"/>
<path d="M492.439 297.24C492.439 297.24 500.709 302 502.389 307.6C503.389 310.99 511.119 354.46 512.389 363.03C513.659 371.6 511.029 377.95 507.389 380.8C503.749 383.65 492.649 387.43 492.649 387.43L476.999 392.48L472.529 381.11L487.369 359.79L485.929 345.43L492.439 297.24Z" fill="#FFD166"/>
<path d="M476.19 289.73L470 286.18C470 286.18 464.34 292.8 456.62 291.99C451.834 291.354 447.457 288.958 444.34 285.27L421.34 289.95C419.8 290.26 416.98 291.24 414.29 295.09C411.29 299.38 397.05 318.41 397.05 318.41H387C385.651 318.409 384.327 318.776 383.171 319.472C382.015 320.168 381.07 321.167 380.44 322.36C378.74 325.6 376.7 329.94 376.9 331.74C377.23 334.74 376.65 343.11 380.72 345.74C382.01 346.57 386.63 349.04 390.22 348.87C395.51 348.62 401.65 345.87 405.22 343.39C408.22 341.3 415.22 334.05 417.88 331.22V331.27L419.6 391.64L479.94 389.92L492.44 297.27C492.44 297.27 476.8 289.73 476.19 289.73Z" fill="#FFD166"/>
<path d="M417.67 305.9C417.76 305.9 417.91 313.38 418.02 322.61C418.13 331.84 418.15 339.33 418.07 339.33C417.99 339.33 417.82 331.85 417.71 322.62C417.6 313.39 417.59 305.9 417.67 305.9Z" fill="#263238"/>
<path d="M499.749 354.7C499.749 354.7 499.239 354.78 498.329 354.96C497.042 355.217 495.788 355.616 494.589 356.15C492.806 356.943 491.127 357.951 489.589 359.15C487.711 360.619 485.958 362.241 484.349 364C482.619 365.86 481.039 367.71 479.559 369.34C478.262 370.806 476.89 372.205 475.449 373.53C474.478 374.425 473.445 375.25 472.359 376C471.989 376.27 471.669 376.45 471.459 376.59C471.355 376.66 471.244 376.721 471.129 376.77L471.429 376.53C471.619 376.38 471.929 376.19 472.289 375.9C473.337 375.115 474.338 374.27 475.289 373.37C476.509 372.24 477.879 370.8 479.339 369.15C480.799 367.5 482.339 365.66 484.109 363.79C485.727 362.019 487.497 360.393 489.399 358.93C490.952 357.721 492.653 356.713 494.459 355.93C495.677 355.402 496.957 355.029 498.269 354.82C498.623 354.761 498.98 354.721 499.339 354.7H499.749Z" fill="#263238"/>
<path d="M501.12 350.61C501.12 350.67 500.2 350.8 498.76 351.2C495.003 352.247 491.592 354.277 488.88 357.08C487.88 358.16 487.3 358.91 487.25 358.87C487.343 358.673 487.461 358.488 487.6 358.32C487.945 357.835 488.319 357.37 488.72 356.93C491.386 353.995 494.869 351.923 498.72 350.98C499.296 350.837 499.881 350.731 500.47 350.66C500.684 350.619 500.902 350.603 501.12 350.61Z" fill="#263238"/>
<g opacity="0.3">
<path d="M388.819 340C392.009 340.87 395.819 336.27 398.749 333.4C400.259 331.9 401.829 330.3 402.379 328.25C402.775 326.528 402.599 324.724 401.879 323.11C401.342 321.653 400.631 320.266 399.759 318.98C400.029 321.46 400.639 325.26 399.759 328.37C398.942 330.874 397.54 333.146 395.669 335C393.819 337.08 391.669 339.26 388.779 340" fill="black"/>
</g>
<path d="M402.469 337.39C402.409 337.39 402.779 336.34 403.079 334.6C403.253 333.589 403.354 332.566 403.379 331.54C403.426 329.021 403.03 326.513 402.209 324.13C401.88 323.157 401.475 322.211 400.999 321.3C400.179 319.75 399.509 318.88 399.559 318.84C399.747 319.018 399.915 319.216 400.059 319.43C400.242 319.668 400.413 319.915 400.569 320.17C400.759 320.47 400.989 320.8 401.199 321.17C401.704 322.078 402.135 323.024 402.489 324C402.935 325.201 403.269 326.439 403.489 327.7C403.675 328.965 403.752 330.243 403.719 331.52C403.681 332.558 403.561 333.591 403.359 334.61C403.287 335.005 403.193 335.396 403.079 335.78C403.008 336.071 402.921 336.359 402.819 336.64C402.73 336.902 402.613 337.154 402.469 337.39Z" fill="#263238"/>
<path d="M446.829 287.6C446.829 287.68 446.159 288.09 445.419 288.76C444.679 289.43 444.189 290.07 444.109 290.02C444.37 289.45 444.747 288.941 445.215 288.524C445.683 288.108 446.233 287.793 446.829 287.6Z" fill="#263238"/>
<path d="M453.11 291.25C453.17 291.31 452.57 291.97 452.11 292.93C451.65 293.89 451.43 294.76 451.34 294.74C451.351 294.059 451.52 293.39 451.832 292.785C452.144 292.179 452.592 291.654 453.14 291.25H453.11Z" fill="#263238"/>
<path d="M463.859 295C463.566 294.426 463.335 293.822 463.169 293.2C462.9 292.616 462.693 292.006 462.549 291.38C462.972 291.882 463.282 292.468 463.459 293.1C463.729 293.697 463.865 294.345 463.859 295Z" fill="#263238"/>
<path d="M470.78 291.76C470.68 291.76 470.45 290.76 469.78 289.62C469.11 288.48 468.28 287.8 468.35 287.73C469.072 288.127 469.66 288.729 470.04 289.46C470.504 290.139 470.761 290.938 470.78 291.76Z" fill="#263238"/>
<path d="M490.639 311.31C490.729 311.31 489.699 319.57 488.359 329.73C487.019 339.89 485.859 348.12 485.769 348.1C485.679 348.08 486.709 339.85 488.049 329.69C489.389 319.53 490.559 311.3 490.639 311.31Z" fill="#263238"/>
<path d="M400.219 324.66C400.253 324.946 400.253 325.235 400.219 325.52C400.198 325.856 400.155 326.19 400.089 326.52C400.089 326.71 400.019 326.92 399.989 327.14L399.819 327.82C399.518 328.933 399.12 330.017 398.629 331.06C398.001 332.326 397.258 333.531 396.409 334.66C395.54 335.767 394.551 336.773 393.459 337.66C392.547 338.393 391.537 338.995 390.459 339.45C390.239 339.54 390.019 339.64 389.809 339.71L389.209 339.88L388.679 340.03L388.229 340.09C387.948 340.136 387.664 340.159 387.379 340.16C388.406 339.954 389.411 339.65 390.379 339.25C391.406 338.771 392.367 338.163 393.239 337.44C394.302 336.545 395.267 335.539 396.119 334.44C396.96 333.329 397.7 332.144 398.329 330.9C398.832 329.882 399.243 328.821 399.559 327.73C399.838 326.72 400.058 325.695 400.219 324.66Z" fill="#263238"/>
<g opacity="0.3">
<path d="M488.699 393.67C491.259 392.43 491.839 389.12 492.099 386.29C492.866 377.99 493.633 369.697 494.399 361.41C494.759 357.51 494.929 353.06 492.179 350.27C489.669 347.73 485.679 347.57 482.099 347.58C460.019 347.65 440.529 348.29 418.449 348.35L419.569 387L488.699 393.67Z" fill="black"/>
</g>
<path d="M408.929 354.34L411.279 399.13C411.328 399.968 411.696 400.754 412.309 401.328C412.921 401.901 413.73 402.217 414.569 402.21L485.919 402.34C486.759 402.344 487.569 402.024 488.179 401.447C488.79 400.87 489.155 400.079 489.199 399.24L491.929 355.24C492.019 353.41 490.719 350.98 488.859 350.94H412.279C411.831 350.928 411.386 351.007 410.97 351.174C410.555 351.341 410.178 351.592 409.864 351.911C409.549 352.23 409.304 352.61 409.143 353.028C408.982 353.446 408.909 353.893 408.929 354.34Z" fill="#E0E0E0"/>
<path d="M408.929 354.34C408.929 354.34 408.929 354.28 408.929 354.17C408.929 354.06 408.929 353.89 408.929 353.67C409.024 353.016 409.321 352.407 409.779 351.93C410.108 351.571 410.515 351.29 410.969 351.11C411.52 350.915 412.105 350.833 412.689 350.87H417.029L444.679 350.82H485.679H488.589C489.109 350.796 489.625 350.928 490.069 351.2C490.5 351.477 490.871 351.837 491.159 352.26C491.736 353.114 492.046 354.12 492.049 355.15C491.989 356.15 491.939 357.15 491.879 358.15C491.632 362.15 491.379 366.26 491.119 370.48C490.599 378.86 490.059 387.54 489.509 396.43L489.409 398.09C489.391 398.652 489.344 399.213 489.269 399.77C489.156 400.34 488.899 400.872 488.523 401.315C488.146 401.757 487.663 402.097 487.119 402.3C486.583 402.486 486.015 402.561 485.449 402.52H480.539H467.729H443.509L421.599 402.46H415.309C414.899 402.46 414.489 402.46 414.069 402.46C413.244 402.343 412.49 401.929 411.949 401.296C411.407 400.663 411.116 399.853 411.129 399.02C411.089 398.24 411.049 397.47 411.009 396.71C410.929 395.18 410.859 393.71 410.779 392.23C410.189 380.58 409.709 371.15 409.379 364.62C409.219 361.37 409.099 358.84 409.019 357.12C409.019 356.26 408.949 355.61 408.929 355.12C408.909 354.63 408.929 354.46 408.929 354.46C408.929 354.46 408.929 354.68 408.979 355.12C409.029 355.56 409.049 356.22 409.099 357.07C409.199 358.8 409.339 361.32 409.519 364.58C409.879 371.1 410.389 380.58 411.019 392.18C411.099 393.64 411.179 395.13 411.259 396.66C411.299 397.42 411.339 398.19 411.379 398.97C411.371 399.74 411.637 400.488 412.129 401.08C412.636 401.682 413.349 402.074 414.129 402.18C414.532 402.201 414.936 402.201 415.339 402.18H421.629H443.539H467.759H480.569H485.479C485.992 402.223 486.509 402.162 486.999 402C487.502 401.821 487.95 401.515 488.3 401.112C488.65 400.709 488.891 400.223 488.999 399.7C489.089 399.19 489.089 398.61 489.129 398.07L489.239 396.4C489.789 387.52 490.319 378.84 490.839 370.46C491.099 366.267 491.355 362.154 491.609 358.12L491.789 355.12C491.785 354.15 491.493 353.203 490.949 352.4C490.713 351.993 490.372 351.656 489.963 351.424C489.553 351.192 489.089 351.074 488.619 351.08H485.699H444.699H417.049H412.709C412.136 351.031 411.56 351.106 411.019 351.3C410.572 351.468 410.168 351.734 409.839 352.08C409.385 352.55 409.085 353.146 408.979 353.79C408.919 354.11 408.999 354.34 408.929 354.34Z" fill="#263238"/>
<path d="M455.16 376.19C455.164 377.026 454.919 377.844 454.457 378.54C453.994 379.236 453.335 379.778 452.563 380.099C451.792 380.419 450.942 380.502 450.123 380.338C449.303 380.174 448.551 379.769 447.963 379.176C447.374 378.583 446.975 377.828 446.817 377.008C446.658 376.187 446.748 375.338 447.073 374.569C447.399 373.799 447.946 373.144 448.646 372.687C449.345 372.229 450.165 371.99 451 372C452.105 372.011 453.162 372.457 453.941 373.241C454.719 374.025 455.158 375.085 455.16 376.19Z" fill="white"/>
<path d="M455.16 376.19C455.16 376.19 455.16 375.81 454.97 375.19C454.822 374.638 454.56 374.122 454.202 373.676C453.843 373.23 453.395 372.864 452.887 372.6C452.379 372.337 451.822 372.182 451.251 372.146C450.68 372.11 450.107 372.193 449.57 372.39C448.819 372.666 448.167 373.161 447.7 373.81C447.183 374.502 446.904 375.342 446.904 376.205C446.904 377.069 447.183 377.909 447.7 378.6C448.167 379.25 448.819 379.745 449.57 380.02C450.108 380.215 450.679 380.295 451.249 380.258C451.82 380.22 452.376 380.065 452.883 379.802C453.39 379.539 453.837 379.174 454.197 378.73C454.556 378.285 454.819 377.771 454.97 377.22C455.14 376.58 455.13 376.22 455.16 376.22C455.175 376.31 455.175 376.401 455.16 376.49C455.156 376.749 455.126 377.007 455.07 377.26C454.854 378.206 454.317 379.047 453.55 379.64C453.023 380.06 452.402 380.345 451.74 380.47C450.979 380.617 450.192 380.558 449.46 380.3C448.658 380.008 447.961 379.482 447.46 378.79C446.909 378.045 446.611 377.142 446.611 376.215C446.611 375.288 446.909 374.386 447.46 373.64C447.961 372.949 448.658 372.423 449.46 372.13C450.192 371.873 450.979 371.814 451.74 371.96C452.547 372.119 453.29 372.507 453.881 373.078C454.472 373.65 454.885 374.38 455.07 375.18C455.127 375.433 455.157 375.691 455.16 375.95C455.172 376.03 455.172 376.111 455.16 376.19Z" fill="#263238"/>
<path d="M411.339 359.3C411.419 359.3 411.769 366.82 412.119 376.11C412.469 385.4 412.679 392.93 412.599 392.93C412.519 392.93 412.159 385.41 411.809 376.12C411.459 366.83 411.249 359.3 411.339 359.3Z" fill="#263238"/>
<path d="M389.89 300.85C389.47 300.5 391.3 293.46 391.3 293.46C391.3 293.46 386.46 285.56 386.3 283.02C386.14 280.48 388.21 275.25 388.21 275.25L402.1 271.68C402.1 271.68 406.56 279.96 407.45 282.89C408.34 285.82 406 295.76 406 295.76L403.65 300.85C403.65 300.85 396.5 306.46 389.89 300.85Z" fill="#99655C"/>
<path d="M386.359 284.54C385.809 283.543 385.318 282.515 384.889 281.46C384.019 279.37 382.939 277.33 384.889 276.16C385.196 275.96 385.542 275.828 385.903 275.771C386.265 275.714 386.635 275.734 386.989 275.83C386.989 275.83 386.689 274.08 387.729 273.42C388.033 273.228 388.379 273.112 388.737 273.081C389.095 273.049 389.456 273.104 389.789 273.24C389.789 273.24 389.459 270.76 390.969 269.71C391.538 269.339 392.199 269.132 392.878 269.113C393.558 269.094 394.229 269.262 394.819 269.6C394.819 269.6 393.619 258.77 393.519 258.19C393.139 256.09 393.919 254.19 396.009 254.74C396.779 254.93 397.209 255.74 398.109 259.27C399.009 262.8 400.459 268.82 400.459 268.82C400.459 268.82 402.899 273.06 404.049 275.36C405.199 277.66 407.479 282.89 407.669 284.28C408.159 287.86 406.059 292.61 406.059 292.61L391.299 293.46C391.299 293.46 386.919 285.57 386.359 284.54Z" fill="#99655C"/>
<path d="M387.28 276.3C387.697 276.802 388.078 277.334 388.42 277.89L389.59 279.67C389.83 280.022 390.041 280.394 390.22 280.78C390.426 281.22 390.489 281.713 390.4 282.19C390.353 282.439 390.242 282.671 390.077 282.862C389.912 283.054 389.699 283.198 389.46 283.28C389.015 283.393 388.544 283.336 388.14 283.12C387.788 282.948 387.454 282.744 387.14 282.51L386.34 281.91C385.86 281.54 385.49 281.22 385.24 280.99C384.99 280.76 384.86 280.62 384.87 280.6C384.88 280.58 385.49 281.04 386.47 281.74C387.03 282.158 387.622 282.533 388.24 282.86C388.582 283.036 388.976 283.082 389.35 282.99C389.537 282.924 389.703 282.808 389.83 282.655C389.957 282.502 390.04 282.317 390.07 282.12C390.149 281.708 390.097 281.281 389.92 280.9C389.753 280.525 389.556 280.163 389.33 279.82L388.24 278C387.873 277.461 387.552 276.892 387.28 276.3Z" fill="#744A45"/>
<path d="M399.379 277.59C399.249 276.815 399.304 276.02 399.539 275.27C399.673 274.494 399.988 273.761 400.459 273.13C400.539 273.13 400.129 274.13 399.839 275.34C399.549 276.55 399.469 277.59 399.379 277.59Z" fill="#744A45"/>
<path d="M405.23 280.75C403.871 279.434 402.158 278.541 400.3 278.18C398.445 277.822 396.547 277.748 394.67 277.96C393.17 278.1 391.46 278.48 390.77 279.83C390.486 280.563 390.48 281.374 390.753 282.11C391.025 282.847 391.558 283.459 392.25 283.83C393.648 284.524 395.228 284.765 396.77 284.52C398.303 284.267 399.861 284.203 401.41 284.33" fill="#99655C"/>
<path d="M401.41 284.29C401.41 284.29 400.99 284.29 400.25 284.29C399.189 284.333 398.13 284.433 397.08 284.59C396.347 284.678 395.608 284.708 394.87 284.68C394.005 284.649 393.156 284.434 392.38 284.05C391.512 283.6 390.85 282.834 390.53 281.91C390.363 281.415 390.329 280.884 390.43 280.37C390.549 279.843 390.833 279.366 391.24 279.01C392.058 278.37 393.045 277.984 394.08 277.9C395.01 277.796 395.944 277.74 396.88 277.73C398.476 277.705 400.065 277.948 401.58 278.45C402.596 278.789 403.547 279.3 404.39 279.96C404.618 280.144 404.835 280.341 405.04 280.55C405.11 280.622 405.173 280.698 405.23 280.78C405.23 280.78 404.93 280.5 404.32 280.06C403.464 279.444 402.516 278.968 401.51 278.65C400.013 278.197 398.454 277.984 396.89 278.02C395.964 278.032 395.04 278.093 394.12 278.2C393.152 278.268 392.224 278.615 391.45 279.2C391.09 279.515 390.838 279.935 390.73 280.4C390.64 280.857 390.671 281.329 390.82 281.77C391.106 282.629 391.711 283.345 392.51 283.77C393.247 284.143 394.055 284.355 394.88 284.39C395.607 284.435 396.336 284.418 397.06 284.34C398.118 284.204 399.183 284.133 400.25 284.13C400.538 284.145 400.825 284.175 401.11 284.22C401.213 284.227 401.315 284.251 401.41 284.29Z" fill="#744A45"/>
<path d="M387.389 276.47C388.939 278.83 390.309 281.42 391.619 283.92C391.93 284.684 392.441 285.351 393.099 285.85C393.659 286.19 395.049 285.57 395.669 285.35L391.409 275.65" fill="#99655C"/>
<path d="M391.409 275.65C391.557 275.878 391.684 276.119 391.789 276.37L392.729 278.37C393.519 280.1 394.599 282.51 395.809 285.25L395.879 285.4L395.719 285.46C395.259 285.62 394.719 285.83 394.229 285.97C394.016 286.026 393.798 286.056 393.579 286.06C393.462 286.074 393.345 286.074 393.229 286.06C393.115 286.023 393.007 285.969 392.909 285.9C392.567 285.649 392.276 285.337 392.049 284.98C391.609 284.29 391.299 283.6 390.959 282.98C390.289 281.69 389.669 280.53 389.139 279.57C388.609 278.61 388.139 277.84 387.849 277.31C387.675 277.045 387.521 276.768 387.389 276.48C387.595 276.721 387.783 276.979 387.949 277.25C388.299 277.76 388.779 278.51 389.329 279.46C389.879 280.41 390.529 281.56 391.209 282.85C391.559 283.48 391.889 284.19 392.299 284.85C392.506 285.175 392.774 285.457 393.089 285.68C393.349 285.9 393.769 285.82 394.159 285.73C394.654 285.592 395.141 285.429 395.619 285.24L395.529 285.45C394.329 282.7 393.279 280.27 392.529 278.52C392.179 277.68 391.899 276.98 391.669 276.45C391.556 276.192 391.469 275.924 391.409 275.65Z" fill="#744A45"/>
<path d="M390.26 272.77L394.37 283.08C394.619 283.829 394.994 284.529 395.48 285.15C395.723 285.46 396.04 285.704 396.401 285.861C396.763 286.018 397.157 286.083 397.55 286.05C398.075 285.912 398.538 285.603 398.868 285.172C399.198 284.741 399.374 284.213 399.37 283.67C399.341 282.584 399.078 281.516 398.6 280.54C397.355 277.405 396.352 274.179 395.6 270.89" fill="#99655C"/>
<path d="M395.65 270.89C395.699 270.992 395.736 271.099 395.76 271.21C395.82 271.45 395.9 271.75 396 272.12C396.21 272.91 396.52 274.05 397 275.45C397.48 276.85 398 278.5 398.7 280.3C399.137 281.233 399.427 282.228 399.56 283.25C399.606 283.812 399.499 284.375 399.25 284.88C398.999 285.428 398.554 285.863 398 286.1C397.72 286.203 397.421 286.243 397.124 286.219C396.827 286.195 396.539 286.106 396.28 285.96C395.781 285.689 395.36 285.292 395.06 284.81C394.571 283.912 394.156 282.976 393.82 282.01L391.94 277.22L390.67 274C390.54 273.64 390.44 273.35 390.35 273.12C390.307 273.017 390.277 272.91 390.26 272.8C390.322 272.89 390.372 272.988 390.41 273.09L390.79 273.96L392.12 277.16C392.67 278.53 393.33 280.16 394.06 281.93C394.393 282.879 394.804 283.799 395.29 284.68C395.562 285.104 395.942 285.449 396.39 285.68C396.611 285.806 396.857 285.883 397.111 285.906C397.364 285.928 397.62 285.895 397.86 285.81C398.336 285.602 398.717 285.224 398.93 284.75C399.153 284.287 399.252 283.773 399.22 283.26C399.089 282.27 398.809 281.306 398.39 280.4C397.7 278.59 397.16 276.92 396.75 275.51C396.34 274.1 396.06 272.95 395.88 272.15C395.8 271.75 395.73 271.43 395.7 271.22C395.671 271.112 395.654 271.002 395.65 270.89Z" fill="#744A45"/>
<path d="M390.59 297C390.59 297 381.17 324.75 380.8 326.11C380.43 327.47 382.66 337.39 386.75 339.74C390.84 342.09 398.75 332.31 399.75 328.74C400.75 325.17 399.75 319.08 399.75 319.08L406.1 295.17" fill="#99655C"/>
<path d="M399.759 292.63C399.458 292.671 399.151 292.633 398.869 292.52C398.175 292.3 397.536 291.931 396.999 291.439C396.462 290.947 396.039 290.343 395.759 289.67C395.625 289.397 395.56 289.095 395.569 288.79C395.919 289.713 396.48 290.542 397.207 291.208C397.935 291.875 398.809 292.362 399.759 292.63Z" fill="#744A45"/>
</svg>
